<svg width="176" height="176" viewBox="0 0 176 176" fill="none" xmlns="http://www.w3.org/2000/svg">
<mask id="mask0_38_16" style="mask-type:alpha" maskUnits="userSpaceOnUse" x="0" y="0" width="176" height="176">
<circle cx="88.1787" cy="88.6284" r="17.8095" fill="#D9D9D9"/>
<path fill-rule="evenodd" clip-rule="evenodd" d="M88.1786 175.376C108.409 175.376 127.031 168.492 141.831 156.94L126.316 143.548C115.477 151.018 102.338 155.392 88.1786 155.392C51.0184 155.392 20.894 125.268 20.894 88.1078C20.894 50.9476 51.0184 20.8233 88.1786 20.8233C125.158 20.8233 155.17 50.6555 155.461 87.5666H175.445C175.154 39.6188 136.195 0.8396 88.1786 0.8396C39.9817 0.8396 0.9104 39.9109 0.9104 88.1078C0.9104 136.305 39.9817 175.376 88.1786 175.376Z" fill="#D9D9D9"/>
<path fill-rule="evenodd" clip-rule="evenodd" d="M119.444 103.952C116.439 110.073 111.689 115.182 105.843 118.632C113.235 125.615 123.206 129.897 134.178 129.897C156.97 129.897 175.447 111.42 175.447 88.6284C175.447 88.2734 175.442 87.9194 175.434 87.5666H155.411C155.428 87.9183 155.437 88.2723 155.437 88.6284C155.437 100.369 145.919 109.887 134.178 109.887C128.458 109.887 123.265 107.627 119.444 103.952Z" fill="#D9D9D9"/>
</mask>
<g mask="url(#mask0_38_16)">
<rect x="-44.5891" y="-30.4349" width="278.541" height="230.575" fill="url(#paint0_linear_38_16)"/>
</g>
<defs>
<linearGradient id="paint0_linear_38_16" x1="80.1419" y1="-2.45259" x2="147.378" y2="178.417" gradientUnits="userSpaceOnUse">
<stop stop-color="#FC5836"/>
<stop offset="0.505208" stop-color="#E72151"/>
<stop offset="1" stop-color="#89295D"/>
</linearGradient>
</defs>
</svg>
