<svg width="1188" height="298" viewBox="0 0 1188 298" fill="none" xmlns="http://www.w3.org/2000/svg">
<rect x="0.731323" y="0.663818" width="1187.16" height="296.349" fill="#211F1F"/>
<path d="M500.896 237.225V71.0687H519.466V237.225H500.896Z" fill="url(#paint0_linear_318_97)"/>
<path d="M949.138 237.225V71.0687H967.709V237.225H949.138Z" fill="url(#paint1_linear_318_97)"/>
<path d="M649.715 162.857C649.715 172.693 641.742 180.666 631.906 180.666C622.07 180.666 614.096 172.693 614.096 162.857C614.096 153.021 622.07 145.047 631.906 145.047C641.742 145.047 649.715 153.021 649.715 162.857Z" fill="url(#paint2_linear_318_97)"/>
<path d="M685.559 231.168C670.758 242.721 652.136 249.604 631.906 249.604C583.709 249.604 544.637 210.533 544.637 162.336C544.637 114.139 583.709 75.0678 631.906 75.0678C679.922 75.0678 718.881 113.847 719.172 161.795C719.181 162.148 719.174 162.502 719.174 162.857C719.174 185.649 700.697 204.125 677.905 204.125C666.933 204.125 656.962 199.844 649.57 192.86C655.416 189.411 660.166 184.301 663.171 178.181C666.992 181.856 672.185 184.115 677.905 184.115C689.646 184.115 699.164 174.597 699.164 162.857C699.164 162.501 699.205 162.147 699.188 161.795C698.897 124.884 668.885 95.0515 631.906 95.0515C594.745 95.0515 564.621 125.176 564.621 162.336C564.621 199.496 594.745 229.621 631.906 229.621C646.066 229.621 659.204 225.247 670.043 217.776L685.559 231.168Z" fill="url(#paint3_linear_318_97)"/>
<path d="M343.196 237.225L411.13 72.9789L479.945 237.225H460.53L411.13 124.333L362.611 237.225H343.196Z" fill="url(#paint4_linear_318_97)"/>
<path d="M723.124 237.225L791.058 72.9788L825.435 155.03L859.373 72.9788L928.188 237.225H908.773L859.373 124.333L835.676 179.471L859.873 237.225H840.458L825.523 203.094L810.854 237.225H791.439L815.258 179.636L791.058 124.333L742.539 237.225H723.124Z" fill="url(#paint5_linear_318_97)"/>
<path d="M1056.57 237.225H1075.14V89.6395H1127.06V71.0687H1075.14H1056.57L1004.66 71.0687V89.6395H1056.57V237.225Z" fill="url(#paint6_linear_318_97)"/>
<path fill-rule="evenodd" clip-rule="evenodd" d="M139.33 37.6837C117.985 41.4577 104.3 54.1349 101.307 72.9046C100.26 79.4695 100.153 79.6473 97.2784 79.6473C89.4816 79.6473 79.703 88.1471 74.478 99.4658C71.8535 105.151 71.3822 107.4 71.2417 114.928L71.0763 123.737L66.195 126.009C56.4672 130.537 49.6858 141.376 47.5983 155.734C45.0555 173.226 52.1767 190.84 63.2765 194.513C66.4281 195.556 66.5258 195.763 67.0967 202.585C67.7513 210.411 70.7883 218.016 76.2266 225.443C79.9123 230.477 87.7638 235.377 95.4112 237.415C99.2243 238.431 99.7136 238.928 100.673 242.751C102.793 251.204 106.163 256.958 113.213 264.17C122.422 273.59 131.012 277.913 140.528 277.916C148.879 277.918 153.994 275.14 161.09 266.748C170.509 255.611 169.871 263.559 170.189 153.264C170.38 87.0912 170.133 55.3157 169.405 52.6096C166.558 42.0111 152.977 35.2714 139.33 37.6837ZM202.058 37.7557C196.558 39.0872 191.098 43.1039 186.073 49.5159C177.319 60.6868 177.933 52.6196 177.581 161.059C177.364 227.727 177.6 258.496 178.357 262.009C181.033 274.44 195.289 280.86 211.67 277.011C231.65 272.315 243.374 260.896 246.4 243.187L247.502 236.737L252.37 235.61C259.056 234.063 265.146 229.593 269.475 223.056C274.919 214.833 276.342 210.189 276.444 200.307L276.535 191.607L280.712 190.008C304.668 180.836 307.937 131.448 285.254 121.388C281.225 119.602 281.019 119.303 281.019 115.244C281.019 105.747 275.153 92.6782 267.972 86.1742C263.741 82.3424 257.101 79.031 251.166 77.7953C247.986 77.133 247.616 76.6845 246.931 72.6639C244.755 59.8837 231.569 44.8949 217.748 39.4908C212.21 37.3251 206.461 36.6898 202.058 37.7557ZM134.051 47.0556C121.666 51.1052 116.485 55.0919 111.876 64.1171C108.476 70.7709 107.624 83.0476 110.052 90.3777C112.173 96.7798 117.363 102.815 123.053 105.496C128.122 107.885 131.306 108.145 134.971 106.471C136.922 105.58 137.83 105.616 139.052 106.633C141.518 108.685 140.403 111.919 136.542 113.914C125.124 119.816 105.085 106.084 102.139 90.3387C101.758 88.3049 100.936 86.6427 100.312 86.6457C93.7721 86.6777 85.3825 93.5962 81.6819 102.01C76.6232 113.509 78.9179 128.584 87.0056 136.994C90.4342 140.559 92.2446 141.575 96.8509 142.523C99.9557 143.162 104.785 143.58 107.583 143.452C113.248 143.192 114.951 144.232 114.457 147.65C113.973 150.991 108.98 152.011 99.8082 150.643C89.4358 149.097 84.675 146.712 79.9163 140.676C77.7033 137.868 75.6079 134.676 75.2621 133.581C74.458 131.043 72.4712 131.065 67.9267 133.662C62.875 136.55 59.1325 141.836 56.8149 149.359C52.8224 162.318 55.2048 178.337 62.0819 184.783C66.1631 188.608 68.0233 188.277 70.4785 183.285C75.0798 173.931 88.0717 162.605 91.865 164.641C94.893 166.266 94.1388 170.112 90.3306 172.472C85.4074 175.522 78.8701 183.012 76.5584 188.251C72.5539 197.328 74.7789 210.69 81.917 220.421C84.1161 223.419 86.9448 225.626 91.1376 227.614C99.1536 231.416 100.293 231.325 101.138 226.809C103.59 213.705 114.653 202.898 126.822 201.72C131.947 201.224 134.549 202.522 134.549 205.574C134.549 207.917 133.208 208.696 128.178 209.27C120.135 210.189 114.769 214.398 110.055 223.492C108.759 225.993 108.231 229.263 108.202 234.979C108.151 245.044 110.356 250.22 118.214 258.479C127.888 268.647 139.811 272.929 147.438 268.976C153.407 265.881 161.452 254.699 161.452 249.495C161.452 247.546 160.866 247.466 146.506 247.466H131.56V240.374C131.56 233.783 131.349 233.086 128.571 230.484C124.319 226.502 124.339 220.588 128.619 216.297C131.311 213.598 132.131 213.317 135.842 213.815C144.876 215.03 147.733 226.052 140.369 231.29C139.195 232.125 138.535 233.832 138.535 236.035V239.474H162.448V184.534H128.724L125.735 187.531C117.254 196.033 104.391 183.948 112.12 174.739C113.484 173.114 115.837 171.548 117.351 171.258C120.613 170.633 126.362 172.816 127.197 174.999C127.698 176.309 130.407 176.542 145.118 176.542H162.448V156.564H154.554C147.111 156.564 146.488 156.736 143.67 159.561C139.571 163.67 134.538 163.699 130.487 159.638C126.67 155.811 126.545 150.951 130.154 146.652C132.302 144.093 133.454 143.578 137.04 143.578C140.602 143.578 141.782 144.097 143.863 146.575C146.274 149.449 146.707 149.572 154.412 149.572H162.448V127.595H138.535V137.585H99.6757V131.061C99.6757 126.34 99.2841 124.385 98.2578 123.99C96.0867 123.155 93.4811 116.88 94.2484 114.334C95.4869 110.223 99.7694 106.618 103.415 106.618C107.878 106.618 110.279 108.023 112.208 111.764C114.273 115.765 113.348 120.89 110.101 123.451C108.751 124.515 107.647 126.333 107.647 127.49C107.647 129.511 108.11 129.593 119.604 129.593H131.56V119.604H162.448V91.6343H131.56V82.8309C131.56 74.353 131.45 73.9215 128.571 71.1565C126.252 68.9299 125.582 67.4136 125.582 64.3998C125.582 59.0796 129.869 54.6743 135.048 54.6743C137.743 54.6743 139.445 55.4325 141.601 57.5942C145.652 61.6558 145.623 66.7013 141.524 70.8109C139.012 73.3291 138.535 74.5928 138.535 78.7253V83.643H162.589L162.269 68.2616C161.91 50.9534 161.568 50.0573 153.979 46.5641C148.691 44.1298 142.534 44.2816 134.051 47.0556ZM200.144 46.652C193.834 50.0923 186.362 60.9236 186.362 66.6294C186.362 68.5793 186.948 68.6592 201.308 68.6592H216.253V75.27C216.253 81.1906 216.565 82.2375 219.243 85.2942C223.293 89.9182 223.32 94.693 219.319 98.7037C215.3 102.733 210.232 102.733 206.213 98.7037C202.162 94.6421 202.19 89.5965 206.29 85.487C208.447 83.3243 209.279 81.5383 209.279 79.0709V75.6516H185.365V130.592H202.802C213.488 130.592 220.239 130.215 220.239 129.616C220.239 127.794 225.159 125.398 228.901 125.398C231.813 125.398 233.232 126.077 235.4 128.51C239.695 133.328 238.576 140.288 233.048 143.154C228.854 145.327 225.627 144.873 221.886 141.58L218.481 138.583H185.365V158.562H193.292C200.382 158.562 201.475 158.303 203.667 156.106C210.37 149.386 220.239 153.821 220.239 163.552C220.239 167.156 216.774 171.128 212.747 172.141C209.69 172.91 203.574 170.431 202.665 168.053C202.217 166.884 200.246 166.553 193.728 166.553H185.365V187.531H209.279V177.498L247.64 178.041L247.945 184.034C248.178 188.632 248.785 190.609 250.549 192.525C253.66 195.901 254.289 199.169 252.606 203.208C250.986 207.094 246.159 209.615 241.9 208.797C238.479 208.142 234.189 203.187 234.189 199.891C234.189 196.75 236.641 191.947 238.635 191.18C239.477 190.855 240.167 189.452 240.167 188.061V185.533H216.253V195.522H185.365V224.49H216.253V232.904C216.253 240.922 216.395 241.46 219.243 244.315C223.301 248.385 223.456 254.414 219.595 258.002C215.579 261.734 209.296 261.447 205.88 257.378C202.241 253.044 202.393 248.222 206.29 244.315C208.801 241.797 209.279 240.533 209.279 236.401V231.483H185.365V246.017C185.365 263.03 186.183 265.554 192.655 268.5C199.681 271.697 210.137 270.691 221.291 265.745C232.206 260.905 238.228 251.38 238.968 237.787C239.526 227.542 237.423 220.975 231.764 215.302C225.127 208.649 222.858 207.924 211.272 208.757C208.152 208.981 207.751 208.724 207.474 206.317C206.792 200.393 218.801 198.5 227.981 203.086C235.429 206.808 242.767 215.258 244.916 222.59C246.373 227.561 247 228.483 248.925 228.485C252.452 228.487 258.722 224.858 261.418 221.253C267.115 213.635 268.539 209.491 268.552 200.495C268.563 192.875 268.22 191.284 265.282 185.3C260.264 175.081 255.42 172.37 241.763 172.14C236.403 172.049 234.649 171.642 233.797 170.287C233.003 169.026 233.007 168.074 233.813 166.803C234.724 165.365 236.405 165.055 243.274 165.055C247.867 165.055 253.836 165.698 256.538 166.483C262.135 168.112 267.852 173.244 271.034 179.498C273.496 184.337 275.869 184.692 281.251 181.026C294.347 172.104 297.179 142.563 286.014 131.369C283.943 129.294 281.611 127.595 280.83 127.595C280.048 127.595 278.57 129.505 277.542 131.841C273.986 139.927 260.24 152.385 256.269 151.121C252.187 149.822 252.545 145.939 256.988 143.307C261.207 140.809 267.983 133.672 270.116 129.48C274.728 120.418 274.529 111.379 269.499 101.288C265.963 94.1985 262.616 90.8771 255.611 87.5138C248.552 84.1245 247.142 83.9726 247.142 86.6018C247.142 93.9159 238.478 106.891 231.061 110.685C225.758 113.397 217.612 114.874 215.173 113.566C211.621 111.66 213.451 106.624 217.698 106.612C226.578 106.588 235.92 98.7766 238.753 89.0052C242.235 76.9972 238.95 66.2548 228.689 56.0908C218.456 45.9548 207.854 42.4486 200.144 46.652ZM133.125 63.5517C132.446 64.6515 134.986 66.8901 135.887 65.9871C136.247 65.6255 136.542 64.7305 136.542 63.9973C136.542 62.5099 133.973 62.1742 133.125 63.5517ZM211.649 91.0899C210.755 93.4244 212.627 95.1076 214.116 93.3075C215.021 92.2147 214.947 91.6213 213.786 90.6554C212.567 89.6405 212.173 89.7204 211.649 91.0899ZM101.668 116.001C101.668 117.507 104.089 118.843 105.058 117.87C106.37 116.555 105.537 114.609 103.661 114.609C102.565 114.609 101.668 115.236 101.668 116.001ZM226.748 133.536C225.872 134.957 226.99 136.586 228.84 136.586C229.713 136.586 230.213 135.883 230.027 134.92C229.639 132.914 227.649 132.075 226.748 133.536ZM135.556 152.057C134.561 153.259 134.624 153.658 135.884 154.144C137.987 154.953 139.572 153.838 138.883 152.037C138.168 150.17 137.112 150.176 135.556 152.057ZM208.781 161.559C207.947 162.911 209.071 164.555 210.832 164.555C211.622 164.555 212.268 163.656 212.268 162.558C212.268 160.49 209.864 159.801 208.781 161.559ZM118.296 179.186C116.927 180.558 117.637 182.678 119.354 182.346C120.314 182.16 121.098 181.378 121.098 180.608C121.098 179.031 119.34 178.139 118.296 179.186ZM242.332 199.177C242.752 201.364 245.647 201.672 245.647 199.532C245.647 198.714 244.822 197.887 243.813 197.692C242.481 197.436 242.076 197.842 242.332 199.177ZM133.055 222.493C132.221 223.845 133.346 225.489 135.106 225.489C135.897 225.489 136.542 224.59 136.542 223.492C136.542 221.424 134.138 220.735 133.055 222.493ZM211.444 251.121C211.638 252.133 212.463 252.96 213.278 252.96C215.414 252.96 215.106 250.057 212.925 249.636C211.593 249.38 211.188 249.786 211.444 251.121Z" fill="url(#paint7_linear_318_97)"/>
<defs>
<linearGradient id="paint0_linear_318_97" x1="530.699" y1="66.4329" x2="552.035" y2="279.404" gradientUnits="userSpaceOnUse">
<stop stop-color="#FC5836"/>
<stop offset="0.505208" stop-color="#E72151"/>
<stop offset="0.921892" stop-color="#89295D"/>
<stop offset="1" stop-color="#822356"/>
</linearGradient>
<linearGradient id="paint1_linear_318_97" x1="530.699" y1="66.4329" x2="552.035" y2="279.404" gradientUnits="userSpaceOnUse">
<stop stop-color="#FC5836"/>
<stop offset="0.505208" stop-color="#E72151"/>
<stop offset="0.921892" stop-color="#89295D"/>
<stop offset="1" stop-color="#822356"/>
</linearGradient>
<linearGradient id="paint2_linear_318_97" x1="530.699" y1="66.4329" x2="552.035" y2="279.404" gradientUnits="userSpaceOnUse">
<stop stop-color="#FC5836"/>
<stop offset="0.505208" stop-color="#E72151"/>
<stop offset="0.921892" stop-color="#89295D"/>
<stop offset="1" stop-color="#822356"/>
</linearGradient>
<linearGradient id="paint3_linear_318_97" x1="530.699" y1="66.4329" x2="552.035" y2="279.404" gradientUnits="userSpaceOnUse">
<stop stop-color="#FC5836"/>
<stop offset="0.505208" stop-color="#E72151"/>
<stop offset="0.921892" stop-color="#89295D"/>
<stop offset="1" stop-color="#822356"/>
</linearGradient>
<linearGradient id="paint4_linear_318_97" x1="530.699" y1="66.4329" x2="552.035" y2="279.404" gradientUnits="userSpaceOnUse">
<stop stop-color="#FC5836"/>
<stop offset="0.505208" stop-color="#E72151"/>
<stop offset="0.921892" stop-color="#89295D"/>
<stop offset="1" stop-color="#822356"/>
</linearGradient>
<linearGradient id="paint5_linear_318_97" x1="530.699" y1="66.4329" x2="552.035" y2="279.404" gradientUnits="userSpaceOnUse">
<stop stop-color="#FC5836"/>
<stop offset="0.505208" stop-color="#E72151"/>
<stop offset="0.921892" stop-color="#89295D"/>
<stop offset="1" stop-color="#822356"/>
</linearGradient>
<linearGradient id="paint6_linear_318_97" x1="530.699" y1="66.4329" x2="552.035" y2="279.404" gradientUnits="userSpaceOnUse">
<stop stop-color="#FC5836"/>
<stop offset="0.505208" stop-color="#E72151"/>
<stop offset="0.921892" stop-color="#89295D"/>
<stop offset="1" stop-color="#822356"/>
</linearGradient>
<linearGradient id="paint7_linear_318_97" x1="240.551" y1="37.194" x2="208.859" y2="294.109" gradientUnits="userSpaceOnUse">
<stop stop-color="#FC5836"/>
<stop offset="0.387164" stop-color="#E72151"/>
<stop offset="0.732041" stop-color="#A02869"/>
<stop offset="1" stop-color="#5B2D7F"/>
</linearGradient>
</defs>
</svg>
