<svg width="282" height="276" viewBox="0 0 282 276" fill="none" xmlns="http://www.w3.org/2000/svg">
<mask id="mask0_239_45" style="mask-type:alpha" maskUnits="userSpaceOnUse" x="14" y="11" width="254" height="254">
<path d="M166.709 138.828C166.709 153.064 155.168 164.606 140.931 164.606C126.694 164.606 115.153 153.064 115.153 138.828C115.153 124.591 126.694 113.05 140.931 113.05C155.168 113.05 166.709 124.591 166.709 138.828Z" fill="#D9D9D9"/>
<path d="M218.589 237.702C197.167 254.424 170.213 264.388 140.931 264.388C71.1701 264.388 14.6177 207.835 14.6177 138.074C14.6177 68.3133 71.1701 11.7609 140.931 11.7609C210.431 11.7609 266.821 67.8904 267.242 137.291C267.255 137.802 267.244 138.314 267.244 138.828C267.244 171.817 240.501 198.561 207.512 198.561C191.631 198.561 177.197 192.363 166.498 182.255C174.96 177.262 181.835 169.867 186.185 161.008C191.716 166.327 199.232 169.597 207.512 169.597C224.505 169.597 238.281 155.821 238.281 138.828C238.281 138.312 238.317 138.136 238.317 137.291C237.896 83.8652 194.456 40.6855 140.931 40.6855C87.1447 40.6855 43.5423 84.288 43.5423 138.074C43.5423 191.861 87.1447 235.463 140.931 235.463C161.426 235.463 180.443 229.132 196.132 218.319L218.589 237.702Z" fill="#D9D9D9"/>
</mask>
<g mask="url(#mask0_239_45)">
<rect x="-51.2393" y="-33.5065" width="403.164" height="333.737" fill="url(#paint0_linear_239_45)"/>
</g>
<defs>
<linearGradient id="paint0_linear_239_45" x1="129.298" y1="6.99562" x2="226.617" y2="268.789" gradientUnits="userSpaceOnUse">
<stop stop-color="#FC5836"/>
<stop offset="0.505208" stop-color="#E72151"/>
<stop offset="1" stop-color="#89295D"/>
</linearGradient>
</defs>
</svg>
