<svg width="281" height="276" viewBox="0 0 281 276" fill="none" xmlns="http://www.w3.org/2000/svg">
<path d="M166.626 138.828C166.626 153.064 155.085 164.605 140.848 164.605C126.611 164.605 115.07 153.064 115.07 138.828C115.07 124.591 126.611 113.05 140.848 113.05C155.085 113.05 166.626 124.591 166.626 138.828Z" fill="url(#paint0_linear_317_23)"/>
<path d="M218.506 237.702C197.084 254.424 170.13 264.388 140.848 264.388C71.0871 264.388 14.5347 207.835 14.5347 138.074C14.5347 68.3132 71.0871 11.7607 140.848 11.7607C210.348 11.7607 266.738 67.8903 267.159 137.291C267.172 137.801 267.161 138.314 267.161 138.828C267.161 171.817 240.418 198.56 207.429 198.56C191.548 198.56 177.114 192.363 166.415 182.255C174.877 177.262 181.752 169.867 186.102 161.008C191.633 166.327 199.149 169.597 207.429 169.597C224.422 169.597 238.198 155.821 238.198 138.828C238.198 138.312 238.234 138.136 238.234 137.291C237.813 83.8651 194.373 40.6854 140.848 40.6854C87.0617 40.6854 43.4593 84.2878 43.4593 138.074C43.4593 191.86 87.0617 235.463 140.848 235.463C161.343 235.463 180.36 229.132 196.049 218.319L218.506 237.702Z" fill="url(#paint1_linear_317_23)"/>
<defs>
<linearGradient id="paint0_linear_317_23" x1="127.663" y1="42.4193" x2="211.953" y2="230.121" gradientUnits="userSpaceOnUse">
<stop stop-color="#FC5836"/>
<stop offset="0.322909" stop-color="#EF3547"/>
<stop offset="0.505208" stop-color="#E72151"/>
<stop offset="1" stop-color="#89295D"/>
</linearGradient>
<linearGradient id="paint1_linear_317_23" x1="127.663" y1="42.4193" x2="211.953" y2="230.121" gradientUnits="userSpaceOnUse">
<stop stop-color="#FC5836"/>
<stop offset="0.322909" stop-color="#EF3547"/>
<stop offset="0.505208" stop-color="#E72151"/>
<stop offset="1" stop-color="#89295D"/>
</linearGradient>
</defs>
</svg>
