<svg width="282" height="276" viewBox="0 0 282 276" fill="none" xmlns="http://www.w3.org/2000/svg">
<mask id="mask0_239_50" style="mask-type:alpha" maskUnits="userSpaceOnUse" x="17" y="12" width="244" height="252">
<path fill-rule="evenodd" clip-rule="evenodd" d="M128.429 12.5666C127.737 12.751 126.536 16.2272 122.199 30.6039C121.582 32.6474 120.39 36.4027 119.55 38.9491L118.022 43.5794L114.074 44.8106C109.677 46.1816 103.835 48.4879 100.505 50.1663C97.6292 51.6163 97.6292 51.6163 93.1155 49.1251C86.8787 45.6833 84.2278 44.2143 82.4932 43.2371C74.5158 38.7452 69.2608 35.9471 68.9975 36.0516C67.953 36.4668 44.4105 59.9127 44.4105 60.5378C44.4105 60.9581 44.5884 61.5006 44.8057 61.7435C45.0235 61.9859 46.7809 65.215 48.7115 68.9188C50.6421 72.6226 53.7036 78.4711 55.5148 81.9148C59.4541 89.4064 59.39 88.2077 56.191 94.5856C54.7522 97.4548 52.8579 101.788 51.9815 104.215C49.9975 109.709 50.9203 109.009 42.5082 111.396C34.7639 113.594 20.9845 117.555 19.6962 117.954C18.5022 118.323 17.2937 152.526 18.4497 153.24C18.6447 153.361 22.9458 154.713 28.008 156.243C33.0702 157.775 37.7344 159.219 38.373 159.453C39.0116 159.688 41.6643 160.524 44.2679 161.311L49.0018 162.743L50.2395 166.801C51.6114 171.299 54.024 177.335 56.0903 181.439L57.4417 184.124L54.7341 189.102C53.2452 191.84 49.6594 198.31 46.7656 203.478L41.5046 212.876L47.5695 219.269C50.9054 222.785 56.4181 228.424 59.8205 231.8L66.0062 237.939L80.0656 230.523C96.5554 221.825 93.6407 222.438 101.183 226.081C104.569 227.716 109.218 229.71 111.514 230.51C116.713 232.324 115.575 230.145 120.589 247.881C122.961 256.269 125.13 263.201 125.409 263.284C127.165 263.807 159.579 263.904 159.909 263.387C160.11 263.073 162.374 256.04 164.941 247.758L169.607 232.7L174.234 231.155C179.508 229.394 182.222 228.287 186.54 226.138C191.326 223.755 191.172 223.757 195.207 226.046C197.2 227.177 199.981 228.729 201.386 229.495C202.79 230.261 207.351 232.794 211.519 235.125C215.688 237.455 219.329 239.362 219.61 239.362C224.7 239.362 236.008 223.324 239.29 219.269L192.227 189.633C136.735 238.127 74.7103 189.102 72.2401 148.481C60.701 88.6875 138.128 36.0516 194.397 85.719C197.182 88.1767 196.382 88.6875 198.826 85.6321C211.596 75.0449 228.791 61.7435 228.791 61.7435C235.785 54.0368 238.19 54.857 228.791 45.4696L220.9 37.5888L216.6 39.7688C211.069 42.573 201.344 47.6882 196.189 50.5044L192.153 52.709L186.668 50.0052C183.651 48.5181 179.04 46.5763 176.421 45.6902C172.104 44.2287 171.62 43.9486 171.228 42.6822C170.99 41.914 168.972 34.8589 166.742 27.0046L162.688 12.7236H146.546C137.669 12.7236 130.126 12.6437 129.786 12.5467C129.446 12.4491 128.835 12.458 128.429 12.5666Z" fill="white"/>
<path d="M260.894 138.104C260.894 152.341 249.353 163.882 235.116 163.882C220.879 163.882 209.338 152.341 209.338 138.104C209.338 123.867 220.879 112.326 235.116 112.326C249.353 112.326 260.894 123.867 260.894 138.104Z" fill="#FF0000"/>
</mask>
<g mask="url(#mask0_239_50)">
<rect x="5.02051" y="12.4789" width="259.362" height="251.25" fill="url(#paint0_linear_239_50)"/>
</g>
<defs>
<linearGradient id="paint0_linear_239_50" x1="54.536" y1="24.8577" x2="198.08" y2="248.497" gradientUnits="userSpaceOnUse">
<stop stop-color="#00FFF0"/>
<stop offset="1" stop-color="#AD00FF"/>
</linearGradient>
</defs>
</svg>
