<svg width="281" height="276" viewBox="0 0 281 276" fill="none" xmlns="http://www.w3.org/2000/svg">
<mask id="mask0_123_43" style="mask-type:alpha" maskUnits="userSpaceOnUse" x="52" y="42" width="178" height="191">
<path fill-rule="evenodd" clip-rule="evenodd" d="M136.095 42.4121C135.571 42.5517 134.662 45.1833 131.379 56.0669C130.912 57.6139 130.009 60.4568 129.373 62.3845L128.216 65.8898L125.228 66.8219C121.899 67.8597 117.477 69.6057 114.956 70.8763C112.779 71.974 112.779 71.974 109.362 70.0881C104.64 67.4825 102.633 66.3704 101.32 65.6307C95.281 62.2302 91.3029 60.1119 91.1035 60.191C90.3128 60.5053 72.4903 78.2547 72.4903 78.7279C72.4903 79.0461 72.625 79.4567 72.7895 79.6406C72.9544 79.8241 74.2848 82.2687 75.7463 85.0726C77.2079 87.8765 79.5255 92.3039 80.8967 94.9109C83.8788 100.582 83.8303 99.6749 81.4086 104.503C80.3194 106.675 78.8853 109.956 78.2218 111.793C76.7199 115.952 77.4185 115.422 71.0502 117.229C65.1876 118.893 54.7561 121.891 53.7808 122.194C52.8769 122.473 51.962 148.366 52.8371 148.907C52.9848 148.998 56.2408 150.021 60.0731 151.18C63.9053 152.339 67.4363 153.433 67.9197 153.61C68.4032 153.788 70.4114 154.42 72.3824 155.017L75.9661 156.101L76.903 159.173C77.9416 162.578 79.7681 167.147 81.3323 170.254L82.3554 172.286L80.3057 176.055C79.1785 178.128 76.4639 183.026 74.2732 186.939L70.2905 194.053L74.8818 198.893C77.4072 201.554 81.5805 205.823 84.1562 208.379L88.839 213.027L99.4825 207.413C111.966 200.828 109.759 201.292 115.469 204.049C118.032 205.288 121.552 206.797 123.29 207.403C127.226 208.776 126.364 207.126 130.16 220.553C131.955 226.903 133.598 232.151 133.809 232.214C135.138 232.609 159.677 232.683 159.927 232.291C160.079 232.054 161.793 226.729 163.736 220.459L167.269 209.06L170.771 207.891C174.764 206.557 176.818 205.72 180.087 204.093C183.71 202.289 183.594 202.29 186.648 204.023C188.157 204.879 190.262 206.054 191.326 206.634C192.389 207.214 195.841 209.132 198.997 210.896C202.153 212.66 204.909 214.104 205.122 214.104C208.976 214.104 217.536 201.962 220.021 198.893L184.392 176.457C142.383 213.169 95.4283 176.055 93.5583 145.304C84.8228 100.038 143.438 60.191 186.035 97.7909C188.143 99.6515 187.538 100.038 189.388 97.7251C199.055 89.7102 212.072 79.6406 212.072 79.6406C217.367 73.8064 219.188 74.4273 212.072 67.3208L206.099 61.3547L202.843 63.0051C198.657 65.1279 191.294 69.0003 187.391 71.1323L184.336 72.8012L180.184 70.7543C177.9 69.6285 174.41 68.1586 172.427 67.4878C169.158 66.3813 168.792 66.1693 168.496 65.2105C168.316 64.629 166.787 59.2881 165.099 53.3421L162.03 42.5309H149.811C143.09 42.5309 137.38 42.4704 137.123 42.397C136.865 42.3231 136.403 42.3298 136.095 42.4121Z" fill="white"/>
<circle cx="211.2" cy="139.956" r="18.0043" fill="white"/>
</mask>
<g mask="url(#mask0_123_43)">
<rect x="52.4834" y="42.3457" width="176.721" height="190.205" fill="url(#paint0_linear_123_43)"/>
</g>
<defs>
<linearGradient id="paint0_linear_123_43" x1="86.2216" y1="51.7168" x2="199.227" y2="210.18" gradientUnits="userSpaceOnUse">
<stop stop-color="#00FFF0"/>
<stop offset="1" stop-color="#AD00FF"/>
</linearGradient>
</defs>
</svg>
