<svg width="282" height="277" viewBox="0 0 282 277" fill="none" xmlns="http://www.w3.org/2000/svg">
<mask id="mask0_239_51" style="mask-type:alpha" maskUnits="userSpaceOnUse" x="46" y="6" width="190" height="264">
<path d="M235.116 74.1857C235.116 87.9641 232.271 100.245 226.58 111.028C220.889 121.811 207.035 128.308 207.035 128.308V74.1857C207.035 60.1078 202.543 50.7475 193.557 46.1047C184.571 41.3123 172.889 38.916 158.512 38.916H118.25V113.05V145.175V252.05L130.61 269.278L67.1496 269.278L79.5095 252.05H79.4654L79.522 38.916L46.75 6.56678L79.5344 6.56671H159.41C183.223 6.56671 201.794 12.0331 215.123 22.966C228.452 33.7491 235.116 50.8223 235.116 74.1857Z" fill="#D9D9D9"/>
<path d="M188.494 117.61C188.494 131.847 176.953 143.388 162.716 143.388C148.48 143.388 136.938 131.847 136.938 117.61C136.938 103.374 148.48 91.8326 162.716 91.8326C176.953 91.8326 188.494 103.374 188.494 117.61Z" fill="#FF0000"/>
</mask>
<g mask="url(#mask0_239_51)">
<rect x="46.75" y="6.56671" width="188.366" height="262.712" fill="url(#paint0_linear_239_51)"/>
</g>
<defs>
<linearGradient id="paint0_linear_239_51" x1="57.4838" y1="6.56671" x2="178" y2="200.127" gradientUnits="userSpaceOnUse">
<stop stop-color="#FFE601"/>
<stop offset="0.458333" stop-color="#FF7A00"/>
<stop offset="1" stop-color="#FF0674"/>
</linearGradient>
</defs>
</svg>
