<svg width="282" height="277" viewBox="0 0 282 277" fill="none" xmlns="http://www.w3.org/2000/svg">
<mask id="mask0_510_362" style="mask-type:alpha" maskUnits="userSpaceOnUse" x="41" y="16" width="200" height="245">
<circle cx="193.438" cy="123.17" r="24.2046" fill="#FF0000"/>
<path d="M159.278 46.7981C172.613 46.7981 183.448 49.0206 191.782 53.4656C198.301 56.8338 202.271 62.8791 203.691 71.6014H230.035C228.674 53.9453 222.591 40.7464 211.785 32.0046C199.422 21.8645 182.198 16.7944 160.112 16.7944H86.0278L86.0206 42.4464L86.0124 71.6014H41.5137L85.9971 126.029V260.457L121.937 260.457L121.936 170.002L195.865 260.457L240.363 260.457L121.937 115.557L121.936 46.7981H159.278Z" fill="#D9D9D9"/>
</mask>
<g mask="url(#mask0_510_362)">
<rect x="34.5098" y="12.9291" width="212.857" height="254.06" fill="url(#paint0_linear_510_362)"/>
</g>
<defs>
<linearGradient id="paint0_linear_510_362" x1="283.206" y1="-22.3041" x2="111.19" y2="182.08" gradientUnits="userSpaceOnUse">
<stop stop-color="#42FF00"/>
<stop offset="1" stop-color="#00A3FF"/>
</linearGradient>
</defs>
</svg>
