<svg width="282" height="277" viewBox="0 0 282 277" fill="none" xmlns="http://www.w3.org/2000/svg">
<path d="M217.642 123.17C217.642 136.538 206.805 147.375 193.438 147.375C180.07 147.375 169.233 136.538 169.233 123.17C169.233 109.803 180.07 98.9658 193.438 98.9658C206.805 98.9658 217.642 109.803 217.642 123.17Z" fill="url(#paint0_linear_510_362)"/>
<path d="M159.278 46.7981C172.613 46.7981 183.448 49.0206 191.782 53.4656C198.301 56.8338 202.271 62.8791 203.691 71.6014H230.035C228.674 53.9453 222.591 40.7464 211.785 32.0046C199.422 21.8645 182.198 16.7944 160.112 16.7944H86.0278L86.0124 71.6014H41.5137L85.9971 126.029V260.457L121.937 260.457L121.936 170.002L195.865 260.457L240.363 260.457L121.937 115.557L121.936 46.7981H159.278Z" fill="url(#paint1_linear_510_362)"/>
<defs>
<linearGradient id="paint0_linear_510_362" x1="273.844" y1="-16.9969" x2="108.181" y2="174.732" gradientUnits="userSpaceOnUse">
<stop stop-color="#42FF00"/>
<stop offset="1" stop-color="#00A3FF"/>
</linearGradient>
<linearGradient id="paint1_linear_510_362" x1="273.844" y1="-16.9969" x2="108.181" y2="174.732" gradientUnits="userSpaceOnUse">
<stop stop-color="#42FF00"/>
<stop offset="1" stop-color="#00A3FF"/>
</linearGradient>
</defs>
</svg>
