<svg width="281" height="276" viewBox="0 0 281 276" fill="none" xmlns="http://www.w3.org/2000/svg">
<path d="M83.748 209.547L31.5068 66.3342H71.6948L84.6948 85.1427H59.9253L92.755 180.082L129.287 66.3342H141.844V93.8058L103.113 209.547H83.748Z" fill="url(#paint0_linear_123_40)"/>
<path d="M199.939 209.547L252.18 66.3342H211.993L198.993 85.1427H223.762L190.932 180.082L154.4 66.3342H141.844V93.8058L180.574 209.547H199.939Z" fill="url(#paint1_linear_123_40)"/>
<path d="M157.606 193.784C157.606 202.49 150.549 209.547 141.844 209.547C133.138 209.547 126.081 202.49 126.081 193.784C126.081 185.079 133.138 178.022 141.844 178.022C150.549 178.022 157.606 185.079 157.606 193.784Z" fill="url(#paint2_linear_123_40)"/>
<defs>
<linearGradient id="paint0_linear_123_40" x1="252.18" y1="66.3342" x2="79.9355" y2="209.547" gradientUnits="userSpaceOnUse">
<stop stop-color="#FF007A"/>
<stop offset="1" stop-color="#FF5C00"/>
</linearGradient>
<linearGradient id="paint1_linear_123_40" x1="252.18" y1="66.3342" x2="79.9355" y2="209.547" gradientUnits="userSpaceOnUse">
<stop stop-color="#FF007A"/>
<stop offset="1" stop-color="#FF5C00"/>
</linearGradient>
<linearGradient id="paint2_linear_123_40" x1="252.18" y1="66.3342" x2="79.9355" y2="209.547" gradientUnits="userSpaceOnUse">
<stop stop-color="#FF007A"/>
<stop offset="1" stop-color="#FF5C00"/>
</linearGradient>
</defs>
</svg>
