<svg width="254" height="242" viewBox="0 0 254 242" fill="none" xmlns="http://www.w3.org/2000/svg">
<path fill-rule="evenodd" clip-rule="evenodd" d="M92.3301 0.683747C70.9854 4.45766 57.3 17.1349 54.3068 35.9046C53.2596 42.4695 53.153 42.6473 50.2784 42.6473C42.4816 42.6473 32.703 51.1471 27.478 62.4658C24.8535 68.1507 24.3822 70.4003 24.2417 77.9281L24.0763 86.7366L19.195 89.0091C9.4672 93.5372 2.68576 104.376 0.598319 118.734C-1.94447 136.226 5.17674 153.84 16.2765 157.513C19.4281 158.556 19.5258 158.763 20.0967 165.585C20.7513 173.411 23.7883 181.016 29.2266 188.443C32.9123 193.477 40.7638 198.377 48.4112 200.415C52.2243 201.431 52.7136 201.928 53.6731 205.751C55.7934 214.204 59.1632 219.958 66.2127 227.17C75.4223 236.59 84.0122 240.913 93.5277 240.916C101.879 240.918 106.994 238.14 114.09 229.748C123.509 218.611 122.871 226.559 123.189 116.264C123.38 50.0912 123.133 18.3157 122.405 15.6096C119.558 5.01106 105.977 -1.72864 92.3301 0.683747ZM155.058 0.755669C149.558 2.08723 144.098 6.10388 139.073 12.5159C130.319 23.6868 130.933 15.6196 130.581 124.059C130.364 190.727 130.6 221.496 131.357 225.009C134.033 237.44 148.289 243.86 164.67 240.011C184.65 235.315 196.374 223.896 199.4 206.187L200.502 199.737L205.37 198.61C212.056 197.063 218.146 192.593 222.475 186.056C227.919 177.833 229.342 173.189 229.444 163.307L229.535 154.607L233.712 153.008C257.668 143.836 260.937 94.4482 238.254 84.3881C234.225 82.602 234.019 82.3034 234.019 78.2438C234.019 68.7471 228.153 55.6782 220.972 49.1742C216.741 45.3424 210.101 42.031 204.166 40.7953C200.986 40.133 200.616 39.6845 199.931 35.6639C197.755 22.8837 184.569 7.89494 170.748 2.49079C165.21 0.325135 159.461 -0.310177 155.058 0.755669ZM87.0512 10.0556C74.6661 14.1052 69.4848 18.0919 64.8755 27.1171C61.4758 33.7709 60.6239 46.0476 63.0521 53.3777C65.1734 59.7798 70.3626 65.8152 76.053 68.4963C81.1217 70.8847 84.3061 71.1454 87.9709 69.4713C89.9218 68.5802 90.8295 68.6162 92.0521 69.6331C94.5182 71.6849 93.4032 74.9194 89.5422 76.9142C78.1235 82.8158 58.0851 69.0837 55.1388 53.3387C54.7582 51.3049 53.9361 49.6427 53.3124 49.6457C46.7721 49.6777 38.3825 56.5962 34.6819 65.0101C29.6232 76.5086 31.9179 91.5843 40.0056 99.9942C43.4342 103.559 45.2446 104.575 49.8509 105.523C52.9557 106.162 57.7852 106.58 60.5831 106.452C66.2475 106.192 67.9514 107.232 67.4572 110.65C66.9729 113.991 61.98 115.011 52.8082 113.643C42.4358 112.097 37.675 109.712 32.9163 103.676C30.7033 100.868 28.6079 97.6757 28.2621 96.5809C27.458 94.0427 25.4712 94.0646 20.9267 96.6618C15.875 99.5497 12.1325 104.836 9.81494 112.359C5.8224 125.318 8.20477 141.337 15.0819 147.783C19.1631 151.608 21.0233 151.277 23.4785 146.285C28.0798 136.931 41.0717 125.605 44.865 127.641C47.893 129.266 47.1388 133.112 43.3306 135.472C38.4074 138.522 31.8701 146.012 29.5584 151.251C25.5539 160.328 27.7789 173.69 34.917 183.421C37.1161 186.419 39.9448 188.626 44.1376 190.614C52.1536 194.416 53.2935 194.325 54.1384 189.809C56.5895 176.705 67.6535 165.898 79.8224 164.72C84.9468 164.224 87.5494 165.522 87.5494 168.574C87.5494 170.917 86.2083 171.696 81.1785 172.27C73.1346 173.189 67.769 177.398 63.0551 186.492C61.7588 188.993 61.2307 192.263 61.2018 197.979C61.151 208.044 63.356 213.22 71.2136 221.479C80.8875 231.647 92.8113 235.929 100.438 231.976C106.407 228.881 114.452 217.699 114.452 212.495C114.452 210.546 113.866 210.466 99.5061 210.466H84.5602V203.374C84.5602 196.783 84.349 196.086 81.5711 193.484C77.3195 189.502 77.3394 183.588 81.6189 179.297C84.3111 176.598 85.1312 176.317 88.8417 176.815C97.876 178.03 100.733 189.052 93.3693 194.29C92.1946 195.125 91.535 196.832 91.535 199.035V202.474H115.448V147.534H81.7245L78.7353 150.531C70.254 159.033 57.3906 146.948 65.1196 137.739C66.4837 136.114 68.8372 134.548 70.3507 134.258C73.6129 133.633 79.3621 135.816 80.197 137.999C80.6982 139.309 83.4074 139.542 98.1181 139.542H115.448V119.564H107.554C100.111 119.564 99.4882 119.736 96.6704 122.561C92.5712 126.67 87.5384 126.699 83.4871 122.638C79.6699 118.811 79.5454 113.951 83.1543 109.652C85.3015 107.093 86.4544 106.578 90.0404 106.578C93.6025 106.578 94.7822 107.097 96.8627 109.575C99.2739 112.449 99.7074 112.572 107.412 112.572H115.448V90.5954H91.535V100.585H52.6757V94.0606C52.6757 89.3398 52.2841 87.3849 51.2578 86.9903C49.0867 86.1552 46.4811 79.88 47.2484 77.3337C48.4869 73.2232 52.7694 69.6181 56.4152 69.6181C60.878 69.6181 63.2793 71.0226 65.2083 74.7635C67.2728 78.7652 66.3482 83.8896 63.1009 86.4509C61.7508 87.5147 60.6468 89.3328 60.6468 90.4895C60.6468 92.5113 61.1102 92.5932 72.6035 92.5932H84.5602V82.604H115.448V54.6343H84.5602V45.8309C84.5602 37.353 84.4496 36.9215 81.5711 34.1565C79.2525 31.9299 78.5819 30.4136 78.5819 27.3998C78.5819 22.0796 82.8693 17.6743 88.0476 17.6743C90.7428 17.6743 92.4447 18.4325 94.6009 20.5942C98.6522 24.6558 98.6233 29.7013 94.5241 33.8109C92.0122 36.3291 91.535 37.5928 91.535 41.7253V46.643H115.589L115.269 31.2616C114.91 13.9534 114.568 13.0573 106.979 9.56413C101.691 7.12977 95.5345 7.2816 87.0512 10.0556ZM153.144 9.65204C146.834 13.0923 139.362 23.9236 139.362 29.6294C139.362 31.5793 139.948 31.6592 154.308 31.6592H169.253V38.27C169.253 44.1906 169.565 45.2375 172.243 48.2942C176.293 52.9182 176.32 57.693 172.319 61.7037C168.3 65.7333 163.232 65.7333 159.213 61.7037C155.162 57.6421 155.19 52.5965 159.29 48.487C161.447 46.3243 162.279 44.5383 162.279 42.0709V38.6516H138.365V93.5921H155.802C166.488 93.5921 173.239 93.2146 173.239 92.6162C173.239 90.7942 178.159 88.3978 181.901 88.3978C184.813 88.3978 186.232 89.077 188.4 91.5104C192.695 96.3282 191.576 103.288 186.048 106.154C181.854 108.327 178.627 107.873 174.886 104.58L171.481 101.583H138.365V121.562H146.292C153.382 121.562 154.475 121.303 156.667 119.106C163.37 112.386 173.239 116.821 173.239 126.552C173.239 130.156 169.774 134.128 165.747 135.141C162.69 135.91 156.574 133.431 155.665 131.053C155.217 129.884 153.246 129.553 146.728 129.553H138.365V150.531H162.279V140.498L200.64 141.041L200.945 147.034C201.178 151.632 201.785 153.609 203.549 155.525C206.66 158.901 207.289 162.169 205.606 166.208C203.986 170.094 199.159 172.615 194.9 171.797C191.479 171.142 187.189 166.187 187.189 162.891C187.189 159.75 189.641 154.947 191.635 154.18C192.477 153.855 193.167 152.452 193.167 151.061V148.533H169.253V158.522H138.365V187.49H169.253V195.904C169.253 203.922 169.395 204.46 172.243 207.315C176.301 211.385 176.456 217.414 172.595 221.002C168.579 224.734 162.296 224.447 158.88 220.378C155.241 216.044 155.393 211.222 159.29 207.315C161.801 204.797 162.279 203.533 162.279 199.401V194.483H138.365V209.017C138.365 226.03 139.183 228.554 145.655 231.5C152.681 234.697 163.137 233.691 174.291 228.745C185.206 223.905 191.228 214.38 191.968 200.787C192.526 190.542 190.423 183.975 184.764 178.302C178.127 171.649 175.858 170.924 164.272 171.757C161.152 171.981 160.751 171.724 160.474 169.317C159.792 163.393 171.801 161.5 180.981 166.086C188.429 169.808 195.767 178.258 197.916 185.59C199.373 190.561 200 191.483 201.925 191.485C205.452 191.487 211.722 187.858 214.418 184.253C220.115 176.635 221.539 172.491 221.552 163.495C221.563 155.875 221.22 154.284 218.282 148.3C213.264 138.081 208.42 135.37 194.763 135.14C189.403 135.049 187.649 134.642 186.797 133.287C186.003 132.026 186.007 131.074 186.813 129.803C187.724 128.365 189.405 128.055 196.274 128.055C200.867 128.055 206.836 128.698 209.538 129.483C215.135 131.112 220.852 136.244 224.034 142.498C226.496 147.337 228.869 147.692 234.251 144.026C247.347 135.104 250.179 105.563 239.014 94.3693C236.943 92.2935 234.611 90.5954 233.83 90.5954C233.048 90.5954 231.57 92.5053 230.542 94.8408C226.986 102.927 213.24 115.385 209.269 114.121C205.187 112.822 205.545 108.939 209.988 106.307C214.207 103.809 220.983 96.6718 223.116 92.4803C227.728 83.4182 227.529 74.3789 222.499 64.2879C218.963 57.1985 215.616 53.8771 208.611 50.5138C201.552 47.1245 200.142 46.9726 200.142 49.6018C200.142 56.9159 191.478 69.8908 184.061 73.6847C178.758 76.3968 170.612 77.8742 168.173 76.5656C164.621 74.6596 166.451 69.6241 170.698 69.6121C179.578 69.5881 188.92 61.7766 191.753 52.0052C195.235 39.9972 191.95 29.2548 181.689 19.0908C171.456 8.95479 160.854 5.44859 153.144 9.65204ZM86.1246 26.5517C85.446 27.6515 87.9858 29.8901 88.8866 28.9871C89.2473 28.6255 89.5422 27.7305 89.5422 26.9973C89.5422 25.5099 86.9735 25.1742 86.1246 26.5517ZM164.649 54.0899C163.755 56.4244 165.627 58.1076 167.116 56.3075C168.021 55.2147 167.947 54.6213 166.786 53.6554C165.567 52.6405 165.173 52.7204 164.649 54.0899ZM54.6685 79.0009C54.6685 80.5073 57.0887 81.8429 58.0582 80.8699C59.3705 79.5553 58.5375 77.6095 56.6613 77.6095C55.5652 77.6095 54.6685 78.2358 54.6685 79.0009ZM179.748 96.5359C178.872 97.9574 179.99 99.5857 181.84 99.5857C182.713 99.5857 183.213 98.8834 183.027 97.9205C182.639 95.9136 180.649 95.0745 179.748 96.5359ZM88.5558 115.057C87.5614 116.259 87.6241 116.658 88.8836 117.144C90.9869 117.953 92.5722 116.838 91.8827 115.037C91.1683 113.17 90.1121 113.176 88.5558 115.057ZM161.781 124.559C160.947 125.911 162.071 127.555 163.832 127.555C164.622 127.555 165.268 126.656 165.268 125.558C165.268 123.49 162.864 122.801 161.781 124.559ZM71.2963 142.186C69.9272 143.558 70.6367 145.678 72.3544 145.346C73.314 145.16 74.0981 144.378 74.0981 143.608C74.0981 142.031 72.3405 141.139 71.2963 142.186ZM195.332 162.177C195.752 164.364 198.647 164.672 198.647 162.532C198.647 161.714 197.822 160.887 196.813 160.692C195.481 160.436 195.076 160.842 195.332 162.177ZM86.0548 185.493C85.2208 186.845 86.3458 188.489 88.1064 188.489C88.8965 188.489 89.5422 187.59 89.5422 186.492C89.5422 184.424 87.1379 183.735 86.0548 185.493ZM164.444 214.121C164.638 215.133 165.463 215.96 166.278 215.96C168.414 215.96 168.106 213.057 165.925 212.636C164.593 212.38 164.188 212.786 164.444 214.121Z" fill="url(#paint0_linear_318_96)"/>
<defs>
<linearGradient id="paint0_linear_318_96" x1="193.551" y1="0.193971" x2="161.859" y2="257.109" gradientUnits="userSpaceOnUse">
<stop stop-color="#FC5836"/>
<stop offset="0.387164" stop-color="#E72151"/>
<stop offset="0.732041" stop-color="#A02869"/>
<stop offset="1" stop-color="#5B2D7F"/>
</linearGradient>
</defs>
</svg>
