<svg width="281" height="276" viewBox="0 0 281 276" fill="none" xmlns="http://www.w3.org/2000/svg">
<path fill-rule="evenodd" clip-rule="evenodd" d="M128.346 12.5666C127.654 12.751 126.453 16.2272 122.116 30.6039C121.499 32.6474 120.307 36.4027 119.466 38.9491L117.939 43.5794L113.991 44.8106C109.594 46.1816 103.752 48.4879 100.422 50.1663C97.5462 51.6163 97.5462 51.6163 93.0325 49.1251C86.7957 45.6833 84.1448 44.2143 82.4102 43.2371C74.4328 38.7452 69.1778 35.9471 68.9145 36.0516C67.87 36.4668 44.3275 59.9127 44.3275 60.5378C44.3275 60.9581 44.5053 61.5006 44.7227 61.7435C44.9405 61.9859 46.6979 65.215 48.6285 68.9188C50.5591 72.6226 53.6206 78.4711 55.4318 81.9148C59.3711 89.4064 59.307 88.2077 56.108 94.5856C54.6692 97.4548 52.7749 101.788 51.8985 104.215C49.9145 109.709 50.8373 109.009 42.4252 111.396C34.6809 113.594 20.9015 117.555 19.6132 117.954C18.4192 118.323 17.2107 152.526 18.3667 153.24C18.5617 153.361 22.8628 154.713 27.925 156.243C32.9872 157.775 37.6514 159.219 38.29 159.453C38.9286 159.688 41.5813 160.524 44.1849 161.311L48.9188 162.743L50.1564 166.801C51.5284 171.299 53.941 177.335 56.0072 181.439L57.3587 184.124L54.6511 189.102C53.1622 191.84 49.5764 198.31 46.6826 203.478L41.4216 212.876L47.4865 219.269C50.8224 222.785 56.3351 228.424 59.7375 231.8L65.9231 237.939L79.9826 230.523C96.4724 221.825 93.5577 222.438 101.1 226.081C104.486 227.716 109.135 229.71 111.431 230.51C116.63 232.324 115.492 230.145 120.506 247.881C122.878 256.269 125.047 263.201 125.326 263.284C127.082 263.807 159.496 263.904 159.826 263.387C160.027 263.073 162.291 256.04 164.858 247.758L169.524 232.7L174.151 231.155C179.425 229.394 182.139 228.287 186.457 226.138C191.243 223.755 191.089 223.757 195.124 226.046C197.117 227.177 199.898 228.729 201.303 229.495C202.707 230.261 207.268 232.794 211.436 235.125C215.605 237.455 219.246 239.362 219.527 239.362C224.617 239.362 235.925 223.324 239.207 219.269L192.144 189.633C136.652 238.127 74.6273 189.102 72.1571 148.481C60.618 88.6875 138.045 36.0516 194.314 85.719C197.099 88.1767 196.299 88.6876 198.743 85.6321C211.513 75.0449 228.708 61.7435 228.708 61.7435C235.702 54.0368 238.107 54.857 228.708 45.4696L220.817 37.5888L216.517 39.7688C210.986 42.573 201.261 47.6882 196.106 50.5044L192.07 52.709L186.585 50.0052C183.568 48.5181 178.957 46.5763 176.338 45.6902C172.021 44.2287 171.537 43.9486 171.145 42.6822C170.907 41.914 168.889 34.8589 166.659 27.0046L162.605 12.7236H146.463C137.586 12.7236 130.043 12.6437 129.703 12.5467C129.363 12.4491 128.752 12.458 128.346 12.5666Z" fill="url(#paint0_linear_317_9)"/>
<path d="M260.811 138.104C260.811 152.341 249.27 163.882 235.033 163.882C220.797 163.882 209.255 152.341 209.255 138.104C209.255 123.867 220.797 112.326 235.033 112.326C249.27 112.326 260.811 123.867 260.811 138.104Z" fill="url(#paint1_linear_317_9)"/>
<defs>
<linearGradient id="paint0_linear_317_9" x1="64.2742" y1="24.8577" x2="211.524" y2="239.718" gradientUnits="userSpaceOnUse">
<stop stop-color="#00FFF0"/>
<stop offset="1" stop-color="#AD00FF"/>
</linearGradient>
<linearGradient id="paint1_linear_317_9" x1="64.2742" y1="24.8577" x2="211.524" y2="239.718" gradientUnits="userSpaceOnUse">
<stop stop-color="#00FFF0"/>
<stop offset="1" stop-color="#AD00FF"/>
</linearGradient>
</defs>
</svg>
