<svg width="281" height="277" viewBox="0 0 281 277" fill="none" xmlns="http://www.w3.org/2000/svg">
<path d="M235.033 74.1857C235.033 87.9641 232.188 100.245 226.497 111.028C220.806 121.811 206.952 128.308 206.952 128.308V74.1857C206.952 60.1078 202.46 50.7475 193.474 46.1047C184.488 41.3123 172.806 38.916 158.429 38.916H118.167V252.049L130.527 269.278H67.0666L79.4265 252.049H79.3824L79.439 38.916L46.667 6.56678L159.327 6.56671C183.14 6.56671 201.711 12.0331 215.04 22.966C228.369 33.7491 235.033 50.8223 235.033 74.1857Z" fill="url(#paint0_linear_317_39)"/>
<path d="M188.411 117.61C188.411 131.847 176.87 143.388 162.633 143.388C148.397 143.388 136.855 131.847 136.855 117.61C136.855 103.374 148.397 91.8326 162.633 91.8326C176.87 91.8326 188.411 103.374 188.411 117.61Z" fill="url(#paint1_linear_317_39)"/>
<defs>
<linearGradient id="paint0_linear_317_39" x1="57.4008" y1="6.56671" x2="177.917" y2="200.127" gradientUnits="userSpaceOnUse">
<stop stop-color="#FFE601"/>
<stop offset="0.458333" stop-color="#FF7A00"/>
<stop offset="1" stop-color="#FF0674"/>
</linearGradient>
<linearGradient id="paint1_linear_317_39" x1="57.4008" y1="6.56671" x2="177.917" y2="200.127" gradientUnits="userSpaceOnUse">
<stop stop-color="#FFE601"/>
<stop offset="0.458333" stop-color="#FF7A00"/>
<stop offset="1" stop-color="#FF0674"/>
</linearGradient>
</defs>
</svg>
