<svg width="1512" height="983" viewBox="0 0 1512 983" fill="none" xmlns="http://www.w3.org/2000/svg">
<path d="M-195.546 735.516C-156.16 823.381 -89.9619 1000.36 109.116 1027.09C439.024 1071.39 1042.41 1113.6 1105.3 645.193C1092.78 60.7448 122.889 100.484 -43.3033 80.0974L3.30576 -8.14464L1292.6 -234.527C1336.9 -274.081 1449.75 -138.161 1505.73 -56.6066C1540.62 -5.77277 1478.79 -15.6619 1389.73 -22.6844C1409.08 -16.3679 1461.08 -14.3254 1466.25 -2.8298C1466.25 -2.8298 1378.46 99.0464 1389.73 181.787C1396.76 233.376 1498.12 372.778 1530.81 375.76L1516.64 444.778C1445.74 414.103 1358.3 287.57 1332.31 219.831C1298.69 132.229 1353.46 35.0414 1389.73 -22.6844C1306.09 -29.2805 1228.03 -22.6844 1208.11 69.3928C1169.49 320.977 1541.51 856.936 1275.1 1027.09L1205.29 1004.72C1427.13 828.614 1127.51 371.633 1124.98 80.0974C1123 -147.767 1516.15 24.527 1292.6 -234.527L3.30576 -8.14464C107.074 11.208 847.121 37.6191 1055.21 331.681C1277.06 645.193 1132.98 1236.01 301.994 1107.72C182.343 1134.38 225.836 1189.4 140.705 1169.7C-32.5924 1129.61 -235.847 935.193 -315.812 842.998C-275.629 790.018 -170.314 791.806 -195.546 735.516Z" fill="url(#paint0_linear_8_345)"/>
<defs>
<linearGradient id="paint0_linear_8_345" x1="583.912" y1="-87.4423" x2="1000.11" y2="1063.36" gradientUnits="userSpaceOnUse">
<stop stop-color="#19FF9E"/>
<stop offset="1" stop-color="#DCFF01"/>
</linearGradient>
</defs>
</svg>
