<svg width="1512" height="983" viewBox="0 0 1512 983" fill="none" xmlns="http://www.w3.org/2000/svg">
<path d="M-195.546 737.984C-156.16 826.07 -89.962 1003.5 109.116 1030.29C403.551 1069.93 1038.01 1087.35 1215.75 756.831C1193.74 716.607 1161.22 679.312 1119.71 648.216C1042.33 590.24 1020.57 442.158 1004.45 299.477C768.561 138.623 439.459 7.70779 338.089 -4.75822L913.086 -22.1253L1292.6 -234.509C1336.9 -274.163 1449.75 -137.9 1505.73 -56.1394C1573.4 42.6905 1340.55 55.184 1341.98 294.594C1343.71 585.019 1603.12 1057.48 1417.77 1156.87L1342.6 1187.51C1567.73 1032.17 1261.25 500.482 1258.72 208.211C1256.74 -20.229 1516.15 25.199 1292.6 -234.509L913.086 -22.1253C976.658 3.70769 987.402 148.572 1004.45 299.477C1155.3 402.338 1268.03 517.443 1258.72 621.645C1251.95 672.138 1237.17 717.01 1215.75 756.831C1332.36 969.86 1154.32 1265.06 455.324 1156.87C335.673 1183.6 225.836 1193.01 140.705 1173.27C-32.5925 1133.07 -235.847 938.165 -315.813 845.737C-275.629 792.623 -170.314 794.416 -195.546 737.984Z" fill="url(#paint0_linear_8_257)"/>
<defs>
<linearGradient id="paint0_linear_8_257" x1="583.912" y1="-87.0531" x2="1001.97" y2="1065.98" gradientUnits="userSpaceOnUse">
<stop stop-color="#FF5C00"/>
<stop offset="1" stop-color="#7000FF"/>
</linearGradient>
</defs>
</svg>
