<svg width="1512" height="983" viewBox="0 0 1512 983" fill="none" xmlns="http://www.w3.org/2000/svg">
<path fill-rule="evenodd" clip-rule="evenodd" d="M602.419 61.0473C602.419 94.9926 629.937 122.511 663.883 122.511H1324.96C1358.91 122.511 1386.43 150.029 1386.43 183.974C1386.43 217.92 1358.91 245.438 1324.96 245.438H1011.51C977.568 245.438 950.05 272.956 950.05 306.901C950.05 340.847 977.568 368.365 1011.51 368.365H1324.96C1358.91 368.365 1386.43 395.883 1386.43 429.828C1386.43 463.774 1358.91 491.292 1324.96 491.292H1134.69C1100.74 491.292 1073.23 518.81 1073.23 552.755C1073.23 586.701 1100.74 614.219 1134.69 614.219H1324.96C1358.91 614.219 1386.43 641.737 1386.43 675.682C1386.43 709.628 1358.91 737.146 1324.96 737.146H971.488C937.543 737.146 910.025 764.664 910.025 798.609C910.025 832.555 937.543 860.073 971.488 860.073H1324.96C1358.91 860.073 1386.43 887.591 1386.43 921.536C1386.43 955.482 1358.91 983 1324.96 983L1449.71 983L1449.8 983C1483.71 982.953 1511.18 955.453 1511.18 921.536C1511.18 887.591 1483.66 860.073 1449.71 860.073C1415.77 860.073 1388.25 832.555 1388.25 798.609C1388.25 764.664 1415.77 737.146 1449.71 737.146C1483.66 737.146 1511.18 709.628 1511.18 675.682C1511.18 641.737 1483.66 614.219 1449.71 614.219C1415.77 614.219 1388.25 586.701 1388.25 552.755C1388.25 518.81 1415.77 491.292 1449.71 491.292C1483.66 491.292 1511.18 463.774 1511.18 429.828C1511.18 395.883 1483.66 368.365 1449.71 368.365C1415.77 368.365 1388.25 340.847 1388.25 306.901C1388.25 272.956 1415.77 245.438 1449.71 245.438C1483.66 245.438 1511.18 217.92 1511.18 183.974C1511.18 150.029 1483.66 122.511 1449.71 122.511L1449.72 122.511C1415.77 122.511 1388.25 94.9926 1388.25 61.0473C1388.25 27.1019 1415.77 -0.41626 1449.72 -0.41626H663.883C629.937 -0.41626 602.419 27.1019 602.419 61.0473ZM477.043 93.1953C494.016 93.1953 507.775 79.4362 507.775 62.4635C507.775 45.4908 494.016 31.7317 477.043 31.7317C460.07 31.7317 446.311 45.4908 446.311 62.4635C446.311 79.4362 460.07 93.1953 477.043 93.1953ZM285.322 123.927H61.8452C27.8999 123.927 0 156.455 0 185.922V1H290.841C324.786 1 352.305 28.5181 352.305 62.4635C352.305 96.4089 319.267 123.927 285.322 123.927ZM1355.75 183.974C1355.75 200.947 1341.99 214.706 1325.01 214.706C1308.04 214.706 1294.28 200.947 1294.28 183.974C1294.28 167.002 1308.04 153.242 1325.01 153.242C1341.99 153.242 1355.75 167.002 1355.75 183.974ZM1325.02 461.858C1341.99 461.858 1355.75 448.099 1355.75 431.126C1355.75 414.154 1341.99 400.395 1325.02 400.395C1308.04 400.395 1294.28 414.154 1294.28 431.126C1294.28 448.099 1308.04 461.858 1325.02 461.858ZM1355.75 675.312C1355.75 692.284 1341.99 706.043 1325.02 706.043C1308.04 706.043 1294.28 692.284 1294.28 675.312C1294.28 658.339 1308.04 644.58 1325.02 644.58C1341.99 644.58 1355.75 658.339 1355.75 675.312ZM1325.02 951.799C1341.99 951.799 1355.75 938.04 1355.75 921.067C1355.75 904.094 1341.99 890.335 1325.02 890.335C1308.04 890.335 1294.28 904.094 1294.28 921.067C1294.28 938.04 1308.04 951.799 1325.02 951.799ZM1480.5 183.974C1480.5 200.947 1466.74 214.706 1449.76 214.706C1432.79 214.706 1419.03 200.947 1419.03 183.974C1419.03 167.002 1432.79 153.243 1449.76 153.243C1466.74 153.243 1480.5 167.002 1480.5 183.974ZM1449.76 461.858C1466.74 461.858 1480.5 448.099 1480.5 431.127C1480.5 414.154 1466.74 400.395 1449.76 400.395C1432.79 400.395 1419.03 414.154 1419.03 431.127C1419.03 448.099 1432.79 461.858 1449.76 461.858ZM1480.5 675.312C1480.5 692.284 1466.74 706.044 1449.76 706.044C1432.79 706.044 1419.03 692.284 1419.03 675.312C1419.03 658.339 1432.79 644.58 1449.76 644.58C1466.74 644.58 1480.5 658.339 1480.5 675.312ZM1449.76 951.799C1466.74 951.799 1480.5 938.04 1480.5 921.067C1480.5 904.094 1466.74 890.335 1449.76 890.335C1432.79 890.335 1419.03 904.094 1419.03 921.067C1419.03 938.04 1432.79 951.799 1449.76 951.799Z" fill="url(#paint0_linear_56_83)"/>
<defs>
<linearGradient id="paint0_linear_56_83" x1="353.116" y1="-0.416277" x2="937.078" y2="983" gradientUnits="userSpaceOnUse">
<stop stop-color="#FFE501"/>
<stop offset="1" stop-color="#FF0674"/>
</linearGradient>
</defs>
</svg>
