<svg width="443" height="182" viewBox="0 0 443 182" fill="none" xmlns="http://www.w3.org/2000/svg">
<circle cx="95.9975" cy="85.6989" r="67.0624" fill="white" stroke="black"/>
<circle cx="167.192" cy="140.421" r="15.2856" fill="white" stroke="black"/>
<path d="M207.951 33.2094H212.156L222.042 57.3571H222.383L232.269 33.2094H236.474V62.3003H233.178V40.198H232.894L223.803 62.3003H220.622L211.531 40.198H211.247V62.3003H207.951V33.2094ZM247.06 33.2094V62.3003H243.537V33.2094H247.06ZM252.532 36.3344V33.2094H274.35V36.3344H265.203V62.3003H261.68V36.3344H252.532ZM218.519 93.2094H222.383L225.622 97.4707L226.474 98.6071L231.303 105.028H227.44L224.258 100.766L223.462 99.6867L218.519 93.2094ZM232.497 87.7548C232.497 90.823 231.943 93.4745 230.835 95.7094C229.727 97.9442 228.207 99.6677 226.275 100.88C224.343 102.092 222.137 102.698 219.656 102.698C217.175 102.698 214.968 102.092 213.036 100.88C211.105 99.6677 209.585 97.9442 208.477 95.7094C207.369 93.4745 206.815 90.823 206.815 87.7548C206.815 84.6867 207.369 82.0351 208.477 79.8003C209.585 77.5654 211.105 75.842 213.036 74.6298C214.968 73.4177 217.175 72.8117 219.656 72.8117C222.137 72.8117 224.343 73.4177 226.275 74.6298C228.207 75.842 229.727 77.5654 230.835 79.8003C231.943 82.0351 232.497 84.6867 232.497 87.7548ZM229.087 87.7548C229.087 85.2359 228.666 83.11 227.823 81.377C226.99 79.644 225.858 78.3325 224.428 77.4423C223.008 76.5522 221.417 76.1071 219.656 76.1071C217.894 76.1071 216.299 76.5522 214.869 77.4423C213.448 78.3325 212.317 79.644 211.474 81.377C210.64 83.11 210.224 85.2359 210.224 87.7548C210.224 90.2738 210.64 92.3997 211.474 94.1327C212.317 95.8656 213.448 97.1772 214.869 98.0673C216.299 98.9575 217.894 99.4026 219.656 99.4026C221.417 99.4026 223.008 98.9575 224.428 98.0673C225.858 97.1772 226.99 95.8656 227.823 94.1327C228.666 92.3997 229.087 90.2738 229.087 87.7548ZM251.715 93.3798V80.4821H255.068V102.3H251.715V98.6071H251.488C250.977 99.7151 250.181 100.657 249.102 101.434C248.022 102.201 246.658 102.584 245.011 102.584C243.647 102.584 242.435 102.286 241.374 101.689C240.314 101.083 239.48 100.174 238.874 98.9622C238.268 97.7406 237.965 96.2018 237.965 94.3457V80.4821H241.318V94.1185C241.318 95.7094 241.763 96.9783 242.653 97.9253C243.552 98.8723 244.698 99.3457 246.09 99.3457C246.924 99.3457 247.771 99.1327 248.633 98.7065C249.504 98.2804 250.233 97.627 250.82 96.7463C251.417 95.8656 251.715 94.7435 251.715 93.3798ZM270.355 102.755C268.253 102.755 266.44 102.291 264.915 101.363C263.4 100.425 262.23 99.1185 261.406 97.4423C260.592 95.7567 260.185 93.7965 260.185 91.5617C260.185 89.3268 260.592 87.3571 261.406 85.6526C262.23 83.9386 263.376 82.6033 264.844 81.6469C266.321 80.681 268.045 80.198 270.014 80.198C271.151 80.198 272.273 80.3874 273.381 80.7662C274.489 81.145 275.497 81.7605 276.406 82.6128C277.315 83.4556 278.04 84.573 278.58 85.9651C279.119 87.3571 279.389 89.0711 279.389 91.1071V92.5276H262.571V89.6298H275.98C275.98 88.3988 275.734 87.3003 275.242 86.3344C274.759 85.3685 274.067 84.6062 273.168 84.0475C272.278 83.4887 271.226 83.2094 270.014 83.2094C268.679 83.2094 267.524 83.5408 266.548 84.2037C265.582 84.8571 264.839 85.7094 264.318 86.7605C263.797 87.8117 263.537 88.9386 263.537 90.1412V92.073C263.537 93.7207 263.821 95.1175 264.389 96.2634C264.967 97.3997 265.767 98.2662 266.79 98.8628C267.813 99.4499 269.001 99.7435 270.355 99.7435C271.236 99.7435 272.031 99.6204 272.742 99.3742C273.461 99.1185 274.082 98.7397 274.602 98.2378C275.123 97.7264 275.526 97.092 275.81 96.3344L279.048 97.2435C278.707 98.342 278.135 99.3079 277.33 100.141C276.525 100.965 275.53 101.609 274.347 102.073C273.163 102.528 271.832 102.755 270.355 102.755ZM299.943 85.3685L296.932 86.2207C296.743 85.7189 296.463 85.2312 296.094 84.7577C295.734 84.2747 295.242 83.877 294.617 83.5645C293.992 83.252 293.191 83.0957 292.216 83.0957C290.881 83.0957 289.768 83.4035 288.878 84.019C287.997 84.6251 287.557 85.3969 287.557 86.3344C287.557 87.1677 287.86 87.8259 288.466 88.3088C289.072 88.7918 290.019 89.1942 291.307 89.5162L294.546 90.3117C296.496 90.7851 297.95 91.5096 298.906 92.485C299.863 93.4509 300.341 94.6961 300.341 96.2207C300.341 97.4707 299.981 98.5882 299.261 99.573C298.551 100.558 297.557 101.334 296.279 101.903C295 102.471 293.513 102.755 291.818 102.755C289.593 102.755 287.751 102.272 286.293 101.306C284.834 100.34 283.911 98.9291 283.523 97.073L286.705 96.2776C287.008 97.4518 287.581 98.3325 288.423 98.9196C289.276 99.5067 290.388 99.8003 291.761 99.8003C293.324 99.8003 294.565 99.4689 295.483 98.806C296.411 98.1336 296.875 97.3287 296.875 96.3912C296.875 95.6336 296.61 94.9992 296.08 94.4878C295.549 93.967 294.735 93.5787 293.636 93.323L290 92.4707C288.002 91.9973 286.534 91.2634 285.597 90.269C284.669 89.2653 284.205 88.0105 284.205 86.5048C284.205 85.2738 284.55 84.1848 285.242 83.2378C285.942 82.2908 286.894 81.5475 288.097 81.0077C289.309 80.4679 290.682 80.198 292.216 80.198C294.375 80.198 296.07 80.6715 297.301 81.6185C298.542 82.5654 299.422 83.8154 299.943 85.3685ZM314.876 80.4821V83.323H303.569V80.4821H314.876ZM306.864 75.2548H310.217V96.0503C310.217 96.9973 310.354 97.7075 310.629 98.181C310.913 98.645 311.273 98.9575 311.708 99.1185C312.153 99.27 312.622 99.3457 313.114 99.3457C313.484 99.3457 313.787 99.3268 314.024 99.2889C314.26 99.2416 314.45 99.2037 314.592 99.1753L315.274 102.187C315.046 102.272 314.729 102.357 314.322 102.442C313.915 102.537 313.399 102.584 312.774 102.584C311.827 102.584 310.899 102.381 309.989 101.974C309.09 101.566 308.342 100.946 307.745 100.113C307.158 99.2795 306.864 98.2283 306.864 96.9594V75.2548ZM340.884 80.4821V83.323H329.123V80.4821H340.884ZM332.646 102.3V77.4707C332.646 76.2207 332.939 75.1791 333.526 74.3457C334.114 73.5124 334.876 72.8874 335.813 72.4707C336.751 72.0541 337.74 71.8457 338.782 71.8457C339.606 71.8457 340.278 71.912 340.799 72.0446C341.32 72.1772 341.708 72.3003 341.964 72.4139L340.998 75.3117C340.828 75.2548 340.591 75.1838 340.288 75.0986C339.994 75.0134 339.606 74.9707 339.123 74.9707C338.015 74.9707 337.215 75.2501 336.722 75.8088C336.239 76.3675 335.998 77.1867 335.998 78.2662V102.3H332.646ZM353.548 102.755C351.578 102.755 349.85 102.286 348.363 101.349C346.886 100.411 345.73 99.0995 344.897 97.4139C344.073 95.7283 343.661 93.7586 343.661 91.5048C343.661 89.2321 344.073 87.2482 344.897 85.5531C345.73 83.8581 346.886 82.5418 348.363 81.6043C349.85 80.6668 351.578 80.198 353.548 80.198C355.517 80.198 357.241 80.6668 358.718 81.6043C360.205 82.5418 361.36 83.8581 362.184 85.5531C363.017 87.2482 363.434 89.2321 363.434 91.5048C363.434 93.7586 363.017 95.7283 362.184 97.4139C361.36 99.0995 360.205 100.411 358.718 101.349C357.241 102.286 355.517 102.755 353.548 102.755ZM353.548 99.7435C355.044 99.7435 356.275 99.36 357.241 98.5929C358.207 97.8259 358.922 96.8173 359.386 95.5673C359.85 94.3173 360.082 92.9632 360.082 91.5048C360.082 90.0465 359.85 88.6876 359.386 87.4281C358.922 86.1687 358.207 85.1507 357.241 84.3742C356.275 83.5976 355.044 83.2094 353.548 83.2094C352.051 83.2094 350.82 83.5976 349.855 84.3742C348.889 85.1507 348.174 86.1687 347.71 87.4281C347.246 88.6876 347.014 90.0465 347.014 91.5048C347.014 92.9632 347.246 94.3173 347.71 95.5673C348.174 96.8173 348.889 97.8259 349.855 98.5929C350.82 99.36 352.051 99.7435 353.548 99.7435ZM368.551 102.3V80.4821H371.79V83.7776H372.017C372.415 82.698 373.135 81.8221 374.176 81.1497C375.218 80.4774 376.392 80.1412 377.699 80.1412C377.945 80.1412 378.253 80.1459 378.622 80.1554C378.992 80.1649 379.271 80.1791 379.46 80.198V83.6071C379.347 83.5787 379.086 83.5361 378.679 83.4793C378.281 83.413 377.86 83.3798 377.415 83.3798C376.354 83.3798 375.407 83.6024 374.574 84.0475C373.75 84.4831 373.097 85.0891 372.614 85.8656C372.14 86.6327 371.904 87.5086 371.904 88.4935V102.3H368.551ZM211.474 113.209V142.3H207.951V113.209H211.474ZM221.435 129.175V142.3H218.082V120.482H221.321V123.891H221.605C222.117 122.783 222.893 121.893 223.935 121.221C224.976 120.539 226.321 120.198 227.969 120.198C229.446 120.198 230.739 120.501 231.847 121.107C232.955 121.704 233.816 122.613 234.432 123.834C235.047 125.047 235.355 126.581 235.355 128.437V142.3H232.003V128.664C232.003 126.95 231.558 125.615 230.668 124.658C229.778 123.692 228.556 123.209 227.003 123.209C225.933 123.209 224.976 123.441 224.134 123.905C223.3 124.369 222.642 125.047 222.159 125.937C221.676 126.827 221.435 127.906 221.435 129.175ZM250.97 120.482V123.323H239.663V120.482H250.97ZM242.958 115.255H246.31V136.05C246.31 136.997 246.448 137.707 246.722 138.181C247.007 138.645 247.366 138.957 247.802 139.118C248.247 139.27 248.716 139.346 249.208 139.346C249.578 139.346 249.881 139.327 250.117 139.289C250.354 139.242 250.543 139.204 250.685 139.175L251.367 142.187C251.14 142.272 250.823 142.357 250.416 142.442C250.008 142.537 249.492 142.584 248.867 142.584C247.92 142.584 246.992 142.381 246.083 141.974C245.184 141.566 244.435 140.946 243.839 140.113C243.252 139.279 242.958 138.228 242.958 136.959V115.255ZM264.926 142.755C262.823 142.755 261.01 142.291 259.485 141.363C257.97 140.425 256.801 139.118 255.977 137.442C255.162 135.757 254.755 133.797 254.755 131.562C254.755 129.327 255.162 127.357 255.977 125.653C256.801 123.939 257.946 122.603 259.414 121.647C260.891 120.681 262.615 120.198 264.585 120.198C265.721 120.198 266.843 120.387 267.951 120.766C269.059 121.145 270.068 121.761 270.977 122.613C271.886 123.456 272.61 124.573 273.15 125.965C273.69 127.357 273.96 129.071 273.96 131.107V132.528H257.141V129.63H270.551C270.551 128.399 270.304 127.3 269.812 126.334C269.329 125.368 268.638 124.606 267.738 124.047C266.848 123.489 265.797 123.209 264.585 123.209C263.249 123.209 262.094 123.541 261.119 124.204C260.153 124.857 259.409 125.709 258.889 126.761C258.368 127.812 258.107 128.939 258.107 130.141V132.073C258.107 133.721 258.391 135.118 258.96 136.263C259.537 137.4 260.337 138.266 261.36 138.863C262.383 139.45 263.571 139.743 264.926 139.743C265.806 139.743 266.602 139.62 267.312 139.374C268.032 139.118 268.652 138.74 269.173 138.238C269.694 137.726 270.096 137.092 270.38 136.334L273.619 137.243C273.278 138.342 272.705 139.308 271.9 140.141C271.095 140.965 270.101 141.609 268.917 142.073C267.733 142.528 266.403 142.755 264.926 142.755ZM282.411 113.209V142.3H279.059V113.209H282.411ZM291.904 113.209V142.3H288.551V113.209H291.904ZM298.043 142.3V120.482H301.396V142.3H298.043ZM299.748 116.846C299.095 116.846 298.531 116.623 298.058 116.178C297.594 115.733 297.362 115.198 297.362 114.573C297.362 113.948 297.594 113.413 298.058 112.968C298.531 112.523 299.095 112.3 299.748 112.3C300.401 112.3 300.96 112.523 301.424 112.968C301.898 113.413 302.134 113.948 302.134 114.573C302.134 115.198 301.898 115.733 301.424 116.178C300.96 116.623 300.401 116.846 299.748 116.846ZM316.342 150.937C314.723 150.937 313.331 150.728 312.166 150.312C311.002 149.904 310.031 149.365 309.254 148.692C308.487 148.029 307.877 147.319 307.422 146.562L310.092 144.687C310.395 145.084 310.779 145.539 311.243 146.05C311.707 146.571 312.341 147.021 313.146 147.4C313.961 147.788 315.026 147.982 316.342 147.982C318.104 147.982 319.557 147.556 320.703 146.704C321.849 145.851 322.422 144.516 322.422 142.698V138.266H322.138C321.892 138.664 321.541 139.156 321.087 139.743C320.642 140.321 319.998 140.837 319.155 141.292C318.322 141.737 317.195 141.959 315.774 141.959C314.013 141.959 312.431 141.543 311.03 140.709C309.638 139.876 308.535 138.664 307.72 137.073C306.915 135.482 306.513 133.55 306.513 131.278C306.513 129.043 306.906 127.097 307.692 125.439C308.478 123.773 309.572 122.485 310.973 121.576C312.375 120.657 313.994 120.198 315.831 120.198C317.252 120.198 318.378 120.435 319.212 120.908C320.055 121.372 320.698 121.903 321.144 122.499C321.598 123.086 321.948 123.569 322.195 123.948H322.536V120.482H325.774V142.925C325.774 144.8 325.348 146.325 324.496 147.499C323.653 148.683 322.517 149.549 321.087 150.099C319.666 150.657 318.085 150.937 316.342 150.937ZM316.229 138.948C317.573 138.948 318.71 138.64 319.638 138.025C320.566 137.409 321.271 136.524 321.754 135.368C322.237 134.213 322.479 132.831 322.479 131.221C322.479 129.649 322.242 128.261 321.769 127.059C321.295 125.856 320.594 124.914 319.666 124.232C318.738 123.55 317.592 123.209 316.229 123.209C314.808 123.209 313.625 123.569 312.678 124.289C311.74 125.009 311.035 125.975 310.561 127.187C310.097 128.399 309.865 129.743 309.865 131.221C309.865 132.736 310.102 134.076 310.575 135.241C311.058 136.396 311.769 137.305 312.706 137.968C313.653 138.621 314.827 138.948 316.229 138.948ZM341.058 142.755C338.956 142.755 337.143 142.291 335.618 141.363C334.103 140.425 332.933 139.118 332.109 137.442C331.295 135.757 330.888 133.797 330.888 131.562C330.888 129.327 331.295 127.357 332.109 125.653C332.933 123.939 334.079 122.603 335.547 121.647C337.024 120.681 338.748 120.198 340.717 120.198C341.854 120.198 342.976 120.387 344.084 120.766C345.192 121.145 346.2 121.761 347.109 122.613C348.019 123.456 348.743 124.573 349.283 125.965C349.823 127.357 350.092 129.071 350.092 131.107V132.528H333.274V129.63H346.683C346.683 128.399 346.437 127.3 345.945 126.334C345.462 125.368 344.77 124.606 343.871 124.047C342.981 123.489 341.93 123.209 340.717 123.209C339.382 123.209 338.227 123.541 337.252 124.204C336.286 124.857 335.542 125.709 335.021 126.761C334.501 127.812 334.24 128.939 334.24 130.141V132.073C334.24 133.721 334.524 135.118 335.092 136.263C335.67 137.4 336.47 138.266 337.493 138.863C338.516 139.45 339.704 139.743 341.058 139.743C341.939 139.743 342.734 139.62 343.445 139.374C344.164 139.118 344.785 138.74 345.306 138.238C345.826 137.726 346.229 137.092 346.513 136.334L349.752 137.243C349.411 138.342 348.838 139.308 348.033 140.141C347.228 140.965 346.234 141.609 345.05 142.073C343.866 142.528 342.536 142.755 341.058 142.755ZM358.544 129.175V142.3H355.192V120.482H358.431V123.891H358.715C359.226 122.783 360.002 121.893 361.044 121.221C362.086 120.539 363.431 120.198 365.078 120.198C366.556 120.198 367.848 120.501 368.956 121.107C370.064 121.704 370.926 122.613 371.541 123.834C372.157 125.047 372.465 126.581 372.465 128.437V142.3H369.112V128.664C369.112 126.95 368.667 125.615 367.777 124.658C366.887 123.692 365.665 123.209 364.112 123.209C363.042 123.209 362.086 123.441 361.243 123.905C360.41 124.369 359.752 125.047 359.269 125.937C358.786 126.827 358.544 127.906 358.544 129.175ZM387.454 142.755C385.408 142.755 383.647 142.272 382.17 141.306C380.693 140.34 379.556 139.01 378.761 137.314C377.965 135.619 377.568 133.683 377.568 131.505C377.568 129.289 377.975 127.333 378.789 125.638C379.613 123.934 380.759 122.603 382.227 121.647C383.704 120.681 385.427 120.198 387.397 120.198C388.931 120.198 390.314 120.482 391.545 121.05C392.776 121.618 393.784 122.414 394.57 123.437C395.356 124.459 395.844 125.653 396.033 127.016H392.681C392.426 126.022 391.857 125.141 390.977 124.374C390.105 123.598 388.931 123.209 387.454 123.209C386.147 123.209 385.001 123.55 384.016 124.232C383.041 124.904 382.279 125.856 381.73 127.087C381.19 128.309 380.92 129.743 380.92 131.391C380.92 133.077 381.185 134.545 381.715 135.795C382.255 137.045 383.013 138.015 383.988 138.707C384.973 139.398 386.128 139.743 387.454 139.743C388.325 139.743 389.116 139.592 389.826 139.289C390.536 138.986 391.138 138.55 391.63 137.982C392.123 137.414 392.473 136.732 392.681 135.937H396.033C395.844 137.225 395.375 138.385 394.627 139.417C393.889 140.439 392.908 141.254 391.687 141.86C390.475 142.457 389.064 142.755 387.454 142.755ZM410.082 142.755C407.98 142.755 406.166 142.291 404.641 141.363C403.126 140.425 401.957 139.118 401.133 137.442C400.319 135.757 399.911 133.797 399.911 131.562C399.911 129.327 400.319 127.357 401.133 125.653C401.957 123.939 403.103 122.603 404.57 121.647C406.048 120.681 407.771 120.198 409.741 120.198C410.877 120.198 411.999 120.387 413.107 120.766C414.215 121.145 415.224 121.761 416.133 122.613C417.042 123.456 417.766 124.573 418.306 125.965C418.846 127.357 419.116 129.071 419.116 131.107V132.528H402.298V129.63H415.707C415.707 128.399 415.461 127.3 414.968 126.334C414.485 125.368 413.794 124.606 412.894 124.047C412.004 123.489 410.953 123.209 409.741 123.209C408.406 123.209 407.25 123.541 406.275 124.204C405.309 124.857 404.566 125.709 404.045 126.761C403.524 127.812 403.264 128.939 403.264 130.141V132.073C403.264 133.721 403.548 135.118 404.116 136.263C404.694 137.4 405.494 138.266 406.516 138.863C407.539 139.45 408.728 139.743 410.082 139.743C410.962 139.743 411.758 139.62 412.468 139.374C413.188 139.118 413.808 138.74 414.329 138.238C414.85 137.726 415.252 137.092 415.536 136.334L418.775 137.243C418.434 138.342 417.861 139.308 417.056 140.141C416.251 140.965 415.257 141.609 414.073 142.073C412.89 142.528 411.559 142.755 410.082 142.755Z" fill="white"/>
</svg>
