<?xml version="1.0" encoding="UTF-8" standalone="no"?>
<svg
   height="800"
   width="1200"
   viewBox="-29.99775 -38.70675 259.9805 232.2405"
   version="1.1"
   id="svg4"
   sodipodi:docname="logo-nvidia-bw.svg"
   inkscape:version="1.2 (dc2aedaf03, 2022-05-15)"
   xmlns:inkscape="http://www.inkscape.org/namespaces/inkscape"
   xmlns:sodipodi="http://sodipodi.sourceforge.net/DTD/sodipodi-0.dtd"
   xmlns="http://www.w3.org/2000/svg"
   xmlns:svg="http://www.w3.org/2000/svg">
  <defs
     id="defs8" />
  <sodipodi:namedview
     id="namedview6"
     pagecolor="#ffffff"
     bordercolor="#000000"
     borderopacity="0.25"
     inkscape:showpageshadow="2"
     inkscape:pageopacity="0.0"
     inkscape:pagecheckerboard="0"
     inkscape:deskcolor="#d1d1d1"
     showgrid="false"
     inkscape:zoom="0.417193"
     inkscape:cx="373.92765"
     inkscape:cy="444.63833"
     inkscape:window-width="1728"
     inkscape:window-height="1058"
     inkscape:window-x="-6"
     inkscape:window-y="-6"
     inkscape:window-maximized="1"
     inkscape:current-layer="svg4" />
  <path
     d="m 78.174834,129.25193 0.0052,48.53787 H 91.88535 V 129.25323 H 78.174834 Z m -107.83514,-0.0648 v 48.6027 H -15.8305 v -36.90584 l 10.7140148,0.004 c 3.5488634,0 6.07598614,0.883 7.7862349,2.70735 2.1692541,2.31059 3.0535526,6.03579 3.0535526,12.85215 V 177.7898 H 19.122628 v -26.85311 c 0,-19.16542 -12.2168034,-21.75089 -24.1690955,-21.75089 H -29.660306 Z m 129.906296,0.0661 v 48.53657 h 22.23453 c 11.84597,0 15.71121,-1.97087 19.89283,-6.38717 2.9563,-3.10153 4.86623,-9.90881 4.86623,-17.34755 0,-6.82155 -1.61689,-12.9092 -4.43705,-16.69924 -5.07888,-6.77746 -12.39574,-8.10261 -23.31721,-8.10261 z m 13.59771,10.56749 h 5.89446 c 8.54995,0 14.08135,3.84061 14.08135,13.80388 0,9.96586 -5.5314,13.80517 -14.08135,13.80517 H 113.8437 V 139.82202 Z M 58.410375,129.25323 46.97025,167.72151 36.007283,129.25582 21.210195,129.25323 36.865649,177.7898 H 56.623625 L 72.402258,129.25323 H 58.411671 Z m 95.207305,48.53657 h 13.71052 v -48.53268 l -13.71311,-0.004 z m 38.42809,-48.51972 -19.14208,48.50287 H 186.421 l 3.02892,-8.57329 h 22.65205 l 2.86554,8.57329 h 14.6778 l -19.2886,-48.50676 -18.31094,0.005 z m 8.89873,8.84947 8.30359,22.72206 H 192.379 Z M 60.051902,15.557342 V 3.8967903 A 87.817839,87.817839 0 0 1 63.491849,3.7204492 C 95.383645,2.7181579 116.30729,31.123328 116.30729,31.123328 c 0,0 -22.597588,31.386112 -46.827625,31.386112 -3.490515,0 -6.612789,-0.561438 -9.427763,-1.506678 V 25.64379 c 12.415188,1.498899 14.911191,6.983624 22.37716,19.42604 L 99.029756,31.07276 c 0,0 -12.116964,-15.894033 -32.545295,-15.894033 -2.223713,0 -4.347585,0.155595 -6.432559,0.378615 z m 0,-38.518848 v 17.4175674 c 1.143624,-0.090764 2.289841,-0.1633747 3.439947,-0.2048668 44.351071,-1.4937123 73.245071,36.3729334 73.245071,36.3729334 0,0 -33.18972,40.356166 -67.764235,40.356166 -3.167656,0 -6.133038,-0.291741 -8.920783,-0.785755 v 10.76588 c 2.383198,0.30341 4.851972,0.482344 7.429663,0.482344 32.175757,0 55.443695,-16.430836 77.976455,-35.878919 3.73298,2.991315 19.02797,10.267976 22.17229,13.456378 -21.42414,17.934921 -71.350697,32.3897 -99.65473,32.3897 A 82.244943,82.244943 0 0 1 60.051902,90.997595 V 106.12921 H 182.34441 V -22.962803 H 60.053199 Z m 0,83.964268 v 9.193073 C 30.291759,64.888748 22.032255,33.955158 22.032255,33.955158 c 0,0 14.288811,-15.831795 38.019647,-18.397816 V 25.64379 c -0.01815,0 -0.03112,-0.0052 -0.04668,-0.0052 C 47.552433,24.142285 37.822556,35.7782 37.822556,35.7782 c 0,0 5.451013,19.586822 22.229344,25.224549 z M 7.1962686,32.613151 c 0,0 17.6366974,-26.0271599 52.8556334,-28.7176574 v -9.4394322 c -39.007675,3.1300535 -72.787358,36.1667696 -72.787358,36.1667696 0,0 19.1304102,55.311442 72.788655,60.374764 V 80.961715 C 20.677282,76.006013 7.1962686,32.613151 7.1962686,32.613151 Z"
     fill-rule="evenodd"
     id="path2"
     style="fill:#ffffff;stroke-width:1.29663" />
</svg>
