<?xml version="1.0" encoding="UTF-8" standalone="no"?>
<svg
   width="400"
   height="157"
   fill="none"
   viewBox="0 0 400 157"
   version="1.1"
   id="svg4"
   sodipodi:docname="logo-scale-bw.svg"
   inkscape:version="1.2 (dc2aedaf03, 2022-05-15)"
   xmlns:inkscape="http://www.inkscape.org/namespaces/inkscape"
   xmlns:sodipodi="http://sodipodi.sourceforge.net/DTD/sodipodi-0.dtd"
   xmlns="http://www.w3.org/2000/svg"
   xmlns:svg="http://www.w3.org/2000/svg">
  <defs
     id="defs8" />
  <sodipodi:namedview
     id="namedview6"
     pagecolor="#ffffff"
     bordercolor="#000000"
     borderopacity="0.25"
     inkscape:showpageshadow="2"
     inkscape:pageopacity="0.0"
     inkscape:pagecheckerboard="0"
     inkscape:deskcolor="#d1d1d1"
     showgrid="false"
     inkscape:zoom="1.5031847"
     inkscape:cx="200.90678"
     inkscape:cy="78.832627"
     inkscape:window-width="1728"
     inkscape:window-height="1058"
     inkscape:window-x="-6"
     inkscape:window-y="-6"
     inkscape:window-maximized="1"
     inkscape:current-layer="svg4" />
  <path
     d="m 259.2241,121.59243 a 4.1695428,4.1695428 0 0 1 -4.1701,-4.1701 V 39.576566 a 4.1695428,4.1695428 0 0 1 4.1701,-4.170093 4.1695428,4.1695428 0 0 1 4.17064,4.170093 v 77.845764 a 4.1695428,4.1695428 0 0 1 -4.17064,4.1701 z m 71.32057,-10.92354 a 4.1695428,4.1695428 0 0 0 -0.47904,-5.87784 4.1695428,4.1695428 0 0 0 -5.87785,0.47905 c -4.30923,5.07264 -10.75963,7.98214 -17.70006,7.98214 -11.49718,0 -20.85102,-9.35384 -20.85102,-20.851014 0,-11.49718 9.35384,-20.850465 20.85102,-20.850465 9.34228,0 17.14731,6.712189 18.84131,15.568274 h -25.515 a 4.1695428,4.1695428 0 0 0 -4.1701,4.170643 4.1695428,4.1695428 0 0 0 4.1701,4.170093 h 30.0261 a 4.1689928,4.1689928 0 0 0 4.17009,-4.170093 v -0.556599 c 0,-15.177225 -12.34639,-27.524153 -27.52415,-27.524153 -16.09683,0 -29.19231,13.095477 -29.19231,29.1923 0,16.096824 13.09768,29.191204 29.19396,29.191204 9.39178,0 18.16041,-3.982 24.05695,-10.92354 z m -89.39134,6.75344 V 90.731428 c 0,-15.177224 -12.34638,-27.523603 -27.52361,-27.523603 -16.09737,0 -29.19284,13.095478 -29.19284,29.1923 0,16.096825 13.09547,29.192305 29.19284,29.192305 a 4.1695428,4.1695428 0 0 0 4.17009,-4.1701 4.1689928,4.1689928 0 0 0 -4.17009,-4.17009 c -11.49718,0 -20.85101,-9.35384 -20.85101,-20.851014 0,-11.49718 9.35383,-20.850465 20.85101,-20.850465 10.57704,0 19.18342,8.604736 19.18342,19.183417 v 26.689252 a 4.1689928,4.1689928 0 0 0 4.17009,4.1701 4.1717428,4.1717428 0 0 0 4.1701,-4.1712 z M 114.91975,104.91151 c 0,-4.07 -1.4949,-9.621689 -8.61739,-12.957434 -4.2735,-2.001996 -9.635984,-2.824245 -14.821926,-3.619544 -12.14948,-1.862847 -16.463669,-3.419344 -16.463669,-8.445235 0,-5.47524 7.592735,-8.340186 15.093619,-8.340186 4.72669,0 11.519186,0.953148 17.042266,5.495041 a 4.1712525,4.1712525 0 0 0 5.29925,-6.443239 c -7.43049,-6.11159 -16.250823,-7.394737 -22.340416,-7.394737 -16.100669,0 -23.433808,8.647084 -23.433808,16.680921 0,4.097492 1.500948,9.686034 8.650383,13.045977 4.297149,2.019047 9.682732,2.844045 14.890678,3.643191 12.074673,1.851852 16.361923,3.388554 16.361923,8.333035 0,4.98905 -5.95594,8.34019 -14.818074,8.34019 -9.072783,0 -15.987376,-3.67894 -19.30057,-5.87289 a 4.1711928,4.1711928 0 0 0 -5.77939,1.1759 4.1700928,4.1700928 0 0 0 1.175898,5.77939 c 7.06969,4.68215 15.55892,7.26054 23.901316,7.26054 15.99892,0 23.15936,-8.37869 23.15936,-16.68092 z m 60.46634,4.37249 a 4.1717428,4.1717428 0 0 0 -1.16435,-5.78214 4.1711928,4.1711928 0 0 0 -5.78214,1.16489 c -3.57169,5.3757 -9.54908,8.58384 -15.98738,8.58384 -11.49717,0 -20.851,-9.35329 -20.851,-20.850465 0,-11.497179 9.35383,-20.850464 20.851,-20.850464 6.4394,0 12.41569,3.208145 15.98738,8.583836 a 4.1700928,4.1700928 0 0 0 5.78214,1.164347 4.1695428,4.1695428 0 0 0 1.16435,-5.78159 c -5.1216,-7.707686 -13.69607,-12.308978 -22.93387,-12.308978 -16.09682,0 -29.19229,13.095477 -29.19229,29.192849 0,16.096825 13.09547,29.192305 29.19229,29.192305 9.2389,0 17.81227,-4.6013 22.93387,-12.30843 z"
     id="path2"
     style="fill:#ffffff;stroke-width:0.549999" />
</svg>
