<svg width="269" height="118" viewBox="0 0 269 118" fill="none" xmlns="http://www.w3.org/2000/svg">
<path fill-rule="evenodd" clip-rule="evenodd" d="M27.4775 10.665C35.2735 5.57574 43.2847 2.64243 53.0934 1.28579C55.5437 0.946827 59.3512 0.879236 59.8905 1.16505C60.2552 1.35839 60.2821 1.61873 60.2821 4.9616C60.2821 7.85059 60.2242 8.60794 59.9846 8.84501C59.7692 9.05841 58.9738 9.17334 57.099 9.26219C41.3314 10.0087 26.7115 18.2928 17.7236 31.573C14.8071 35.8828 12.0472 42.0375 10.7666 47.0882C8.84391 54.6719 8.84917 64.0464 10.7806 71.5934C12.4546 78.1343 16.0239 85.2702 20.3233 90.6713C23.3587 94.4847 29.2866 99.6413 33.5524 102.179C41.1599 106.705 50.4383 109.4 58.6115 109.459C59.1959 109.463 59.6021 109.594 59.8771 109.866C60.2503 110.236 60.2821 110.535 60.2821 113.665C60.2821 116.95 60.2669 117.074 59.8319 117.376C58.898 118.024 53.3514 117.641 48.3347 116.583C32.6847 113.281 19.5908 104.536 10.8628 91.5574C5.63777 83.7874 2.70986 75.9126 1.25451 65.7154C0.846683 62.8571 0.8481 55.8301 1.25735 52.8409C3.69562 35.0264 12.9412 20.1545 27.4775 10.665ZM38.5657 16.6255C43.8014 14.0275 49.0641 12.4954 55.1184 11.8064C56.9069 11.6028 63.9732 11.6947 66.357 11.9524C71.1218 12.4677 77.759 14.5454 82.3543 16.9602C85.932 18.8405 90.4115 21.8675 90.926 22.7524C91.1463 23.1315 90.8221 23.6064 88.3835 26.4798C87.1944 27.8809 86.2356 28.8365 86.0189 28.8365C85.8186 28.8365 85.0599 28.3904 84.3327 27.8452C79.1073 23.9271 72.8768 21.3147 66.0533 20.1805C63.923 19.8263 56.7196 19.8249 54.3084 20.1781C48.712 20.998 42.4619 23.3652 37.8869 26.3973C35.597 27.915 31.974 30.9938 30.4593 32.7088C23.6013 40.475 20.1493 49.2786 20.1022 59.1223C20.0795 63.8898 20.5375 66.8227 22.0449 71.5575C23.9415 77.515 26.978 82.4411 31.7431 87.2911C33.0723 88.6441 34.1599 89.9033 34.1599 90.0894C34.1599 90.4296 30.1019 95.3844 29.5744 95.6881C29.0299 96.0016 28.4011 95.5573 25.9736 93.1443C22.1731 89.3668 19.5151 85.7634 17.1732 81.2137C10.6824 68.6033 10.0512 54.2713 15.4147 41.2717C19.8128 30.6117 28.0486 21.844 38.5657 16.6255ZM55.2197 22.4275C56.2777 22.3112 57.4623 22.18 57.8521 22.1359C58.8599 22.0223 62.7084 22.1932 64.737 22.4417C69.5016 23.0256 76.9124 25.561 77.2026 26.7066C77.2821 27.0201 76.8531 28.0141 75.7596 30.0505C74.9038 31.6442 74.1127 33.061 74.0017 33.1988C73.6981 33.5759 73.1344 33.5041 72.0245 32.9469C70.2543 32.0584 68.1112 31.3742 65.0408 30.7172C62.9915 30.2787 57.2086 30.2212 55.1184 30.6187C42.6622 32.9866 33.9844 41.222 31.0006 53.5064C30.4299 55.8556 30.4716 62.7391 31.0725 65.3541C32.9184 73.3907 37.6805 80.0097 44.6633 84.2441C45.7005 84.873 45.9044 85.0876 45.9019 85.5477C45.9003 85.8508 45.194 87.4074 44.3326 89.0069C43.3059 90.9129 42.8502 91.8053 42.2241 91.9475C41.66 92.0756 40.9575 91.5946 39.5745 90.6971C33.4998 86.7552 28.8685 81.5887 25.9614 75.5113C23.3585 70.0695 22.2126 65.1213 22.2126 59.3228C22.2126 53.4191 23.4023 48.3672 26.0627 42.9749C28.1328 38.7792 30.3422 35.813 33.9422 32.3971C39.8355 26.8051 47.3253 23.2958 55.2197 22.4275ZM157.886 50.3833C157.886 27.0486 157.886 27.0309 158.304 26.617C158.699 26.2261 158.911 26.206 162.041 26.266C164.422 26.3115 165.433 26.403 165.622 26.5901C165.829 26.7959 165.892 28.969 165.921 36.8885C165.941 42.4091 166.007 46.9757 166.068 47.0364C166.13 47.0972 166.58 46.7819 167.068 46.3358C169.015 44.5584 170.94 43.6767 174.01 43.156C175.725 42.865 176.258 42.8514 177.762 43.061C179.945 43.365 181.032 43.6859 182.868 44.568C189.892 47.9418 193.101 57.8053 189.841 66.0018C188.21 70.1036 185.281 72.8933 181.072 74.3538C179.1 75.038 178.967 75.0564 176.009 75.052C173.38 75.048 172.798 74.9864 171.676 74.5939C169.315 73.7678 168.126 73.0473 166.854 71.6726C166.187 70.9514 165.582 70.4199 165.51 70.4913C165.437 70.5629 165.378 71.2893 165.378 72.1055C165.378 73.1058 165.403 73.6639 165.137 73.9751C164.781 74.3929 163.903 74.3655 161.741 74.3655C159.085 74.3655 158.467 74.3103 158.204 74.0504C157.918 73.7674 157.886 71.3447 157.886 50.3833ZM47.8285 35.5563C50.8836 34.0587 52.8948 33.4194 56.0296 32.9493C58.4969 32.5793 59.4741 32.5869 59.9117 32.9792C60.2422 33.2754 60.2821 33.6702 60.2821 36.6514C60.2821 39.1204 60.2116 40.0871 60.0118 40.3577C59.8093 40.6323 59.2131 40.7951 57.6324 41.0083C50.5863 41.9586 44.8141 46.4897 42.4394 52.9339C40.8992 57.1144 40.8992 61.5313 42.4394 65.7117C44.8095 72.1438 50.5549 76.66 57.6496 77.6672C59.1631 77.882 59.8487 78.0678 60.029 78.3116C60.2078 78.5533 60.2821 79.6438 60.2821 82.0208C60.2821 85.3779 60.2807 85.3885 59.7829 85.7114C59.3425 85.9972 59.0264 86.0081 57.0998 85.8041C47.8832 84.8285 40.0554 79.4238 35.8627 71.1413C34.2946 68.0438 33.5528 65.4374 33.1329 61.5497C32.6274 56.8721 33.809 51.1266 36.1476 46.8876C38.9391 41.8285 42.9285 37.9585 47.8285 35.5563ZM49.0878 47.7527C51.5261 45.3482 54.3692 43.9425 58.1559 43.2691C59.2696 43.0712 60.4998 42.9021 60.8896 42.8935C62.2259 42.864 65.3751 43.4846 66.9582 44.0893C69.5135 45.0654 72.0269 46.8706 72.0269 47.7296C72.0269 48.1849 67.4859 52.9047 67.0479 52.9047C66.9149 52.9047 66.3756 52.5523 65.8495 52.1216C65.3233 51.691 64.425 51.0819 63.8531 50.7678C62.9109 50.2505 62.6329 50.1976 60.8896 50.2044C59.1564 50.211 58.8286 50.2754 57.5794 50.8548C55.9867 51.5933 54.1622 53.3048 53.4579 54.7206C50.8139 60.0357 53.3725 66.2804 58.8057 67.7726C59.5572 67.979 60.5974 68.1478 61.117 68.1478C62.4421 68.1478 64.511 67.4691 65.5434 66.6959C66.0237 66.3361 66.58 65.9215 66.7798 65.7745C67.0287 65.5914 67.2518 65.5675 67.489 65.6989C68.092 66.0333 72.015 70.4397 72.0211 70.7897C72.0369 71.6937 68.4992 73.7427 65.4458 74.5981C64.0973 74.976 63.3337 75.0514 60.8896 75.049C58.309 75.0462 57.7397 74.982 56.1896 74.5195C49.6753 72.5752 45.485 67.6895 44.6655 61.0824C44.0467 56.0931 45.7079 51.0855 49.0878 47.7527ZM79.6933 45.0103C81.8545 43.9473 83.1471 43.5373 85.4762 43.1761C87.6832 42.8337 88.2445 42.8315 90.2517 43.1564C93.5998 43.6984 95.8076 44.769 97.9466 46.8876C99.4613 48.3879 100.361 49.8105 101.194 52.0222C101.872 53.8229 102.604 57.8575 102.604 59.7968C102.604 60.4505 102.685 60.9051 102.512 61.221C102.072 62.0242 99.9932 61.9302 90.7826 61.9302C81.3525 61.9302 79.534 61.9064 79.3326 62.4653C79.2766 62.6209 79.3459 62.8218 79.4112 63.0809C80.1339 65.9494 82.769 68.2423 85.9673 68.7856C88.7012 69.25 91.7789 68.2385 94.0196 66.1396C94.6995 65.5027 95.2665 65.1393 95.5808 65.1393C96.1922 65.1393 100.646 68.5002 100.751 69.041C100.862 69.6104 97.8812 72.3349 96.1932 73.2076C95.4314 73.6015 94.0333 74.1745 93.0867 74.4812C91.4906 74.9983 91.1224 75.0392 88.0242 75.0438C85.1145 75.0482 84.487 74.9898 83.1643 74.5911C77.2906 72.8207 73.4132 68.9968 71.9297 63.5121C71.5118 61.9669 71.4205 61.1703 71.4201 59.0685C71.4192 55.939 71.8171 54.2354 73.187 51.5007C73.9792 49.919 74.452 49.285 75.9698 47.7689C77.5021 46.2382 78.1049 45.7915 79.6933 45.0103ZM114.224 47.1259C115.38 45.3111 117.812 43.7192 120.221 43.2002C121.873 42.8443 122.737 42.8193 123.765 43.0979C125.265 43.504 125.284 43.5544 125.284 47.081C125.284 50.9096 125.197 51.1202 123.781 50.7449C121.836 50.2299 119.126 50.5095 117.375 51.406C116.185 52.0155 114.833 53.456 114.223 54.7631L113.64 56.0135L113.539 64.8581C113.458 71.9472 113.383 73.7686 113.16 74.0341C112.922 74.3179 112.397 74.3655 109.505 74.3655C107.148 74.3655 106.054 74.2927 105.884 74.1248C105.533 73.7764 105.533 44.4681 105.884 44.1198C106.183 43.8237 112.672 43.7854 113.134 44.0768C113.373 44.2279 113.428 44.6537 113.393 46.0795C113.367 47.1307 113.43 47.8904 113.542 47.8904C113.649 47.8904 113.956 47.5465 114.224 47.1259ZM127.995 49.6165C130.507 46.1293 134.254 43.9593 139.138 43.163C142.234 42.6584 145.569 43.1448 148.362 44.5085C150.832 45.7145 152.833 47.7326 154.111 50.3059C155.28 52.6598 155.815 54.713 156.068 57.8186C156.273 60.3295 156.193 61.3732 155.77 61.7208C155.607 61.8548 151.602 61.9449 144.3 61.9786L133.08 62.0305L133.108 62.6655C133.148 63.5729 134.021 65.3499 134.9 66.3138C137 68.6166 140.821 69.5085 144.015 68.4421C145.185 68.0514 147.39 66.655 148.254 65.7571C148.581 65.4173 149.046 65.1393 149.287 65.1393C149.527 65.1393 150.535 65.7388 151.527 66.4715C153.818 68.1647 154.443 68.7413 154.443 69.1615C154.443 69.347 153.737 70.1654 152.874 70.9805C151.103 72.6532 149.251 73.7102 146.699 74.5061C145.202 74.9732 144.689 75.0291 141.787 75.042C138.986 75.0544 138.328 74.994 136.927 74.5957C133.384 73.5883 130.234 71.5575 128.385 69.0885C125.945 65.8291 124.93 62.3829 125.155 58.1194C125.34 54.6157 126.158 52.1658 127.995 49.6165ZM206.485 44.0201C207.098 43.7248 208.191 43.3558 208.915 43.2C210.544 42.8492 211.196 42.8289 212.355 43.0932C213.961 43.4601 213.978 43.5008 213.978 47.1951C213.978 51.0111 213.926 51.1294 212.44 50.7359C211.049 50.3673 208.737 50.4417 207.227 50.9036C205.723 51.3637 203.993 52.756 203.146 54.1877C202.14 55.8871 202.037 56.9559 202.033 65.6766C202.031 72.7324 201.991 73.7744 201.712 74.0504C201.449 74.3111 200.822 74.3655 198.078 74.3655C194.882 74.3655 194.752 74.3494 194.448 73.9196C194.17 73.5263 194.133 71.7815 194.133 59.0645C194.133 49.5153 194.203 44.5241 194.342 44.267C194.537 43.9066 194.799 43.8791 198.048 43.8791C200.497 43.8791 201.617 43.9511 201.787 44.1198C201.94 44.2706 202.03 45.0201 202.03 46.1254C202.03 47.0962 202.114 47.8904 202.216 47.8904C202.319 47.8904 202.59 47.5894 202.82 47.2211C203.475 46.1712 205.264 44.6083 206.485 44.0201ZM217.784 45.7187C219.773 44.4567 222.15 43.6494 225.317 43.1598C230.104 42.4197 235.535 43.7684 238.079 46.3286C239.362 47.6197 240.547 50.0155 240.934 52.1024C241.148 53.2536 241.213 55.9966 241.213 63.7927C241.213 72.6289 241.173 74.004 240.91 74.1691C240.743 74.2738 239.264 74.3606 237.624 74.3625C234.685 74.3655 234.637 74.3584 234.318 73.8763C234.11 73.5614 234.006 73.0072 234.027 72.3219C234.045 71.736 234.052 71.1291 234.042 70.973C234.032 70.817 233.409 71.2783 232.656 71.9981C231.251 73.3416 230.102 74.0273 228.152 74.6864C226.789 75.1475 222.129 75.2115 220.66 74.7893C219.057 74.3288 216.901 73.2403 216.001 72.4372C213.913 70.5755 213.067 68.3945 213.209 65.2368C213.288 63.483 213.389 63.0125 213.937 61.8526C215.187 59.2065 217.738 57.3452 221.47 56.355C224.182 55.6356 225.357 55.4898 229.266 55.3883C232.775 55.2971 233.705 55.3067 233.946 54.9042C234.051 54.7283 234.025 54.4738 234.025 54.0978C234.025 51.6555 232.399 49.8809 229.523 49.1827C226.679 48.4923 223.326 49.1811 220.622 51.0111C219.743 51.6056 219.13 51.8924 218.896 51.8174C218.346 51.6407 215.395 48.375 215.395 47.943C215.395 47.4624 216.165 46.746 217.784 45.7187ZM246.098 46.6957C247.875 44.7943 250.076 43.7337 253.389 43.1825C255.393 42.8492 256.053 42.8347 257.818 43.0856C261.447 43.6011 263.861 44.5558 265.56 46.1467C266.576 47.0992 266.833 47.6796 266.472 48.2081C266.139 48.6953 262.143 52.1024 261.905 52.1024C261.763 52.1024 261.242 51.7265 260.746 51.2672C259.306 49.935 257.945 49.4144 255.895 49.4116C254.439 49.4095 254.035 49.4858 253.28 49.9034C252.204 50.4988 251.668 51.1723 251.526 52.107C251.288 53.676 252.943 54.8616 256.401 55.6007C263.253 57.065 265.61 58.3633 267.227 61.5632C268.026 63.1445 268.044 63.2265 268.044 65.2883C268.044 67.3077 268.013 67.4611 267.298 68.9254C265.898 71.7944 263.504 73.5917 259.742 74.5991C258.258 74.9964 257.545 75.0594 254.578 75.0552C251.619 75.051 250.909 74.9864 249.518 74.5953C247.143 73.9268 245.595 73.1205 244.139 71.7946C243.031 70.7853 242.874 70.5577 243.042 70.2111C243.272 69.7381 247.488 65.741 247.758 65.741C247.858 65.741 248.652 66.3269 249.521 67.0429C251.551 68.7145 252.7 69.1521 255.042 69.1463C257.713 69.1397 259.501 68.1737 259.959 66.4897C260.343 65.0767 259.718 64.0209 257.988 63.1613C257.087 62.7134 256.765 62.6242 252.857 61.7395C248.817 60.8249 246.92 59.9219 245.368 58.1762C244.176 56.8342 243.744 55.4958 243.747 53.1477C243.751 50.0179 244.236 48.6881 246.098 46.6957ZM83.0576 50.3007C83.4229 50.077 84.3025 49.7682 85.0123 49.6143C86.7416 49.2397 87.3505 49.2385 88.9535 49.6067C90.7065 50.0094 91.6499 50.4956 92.4676 51.418C93.5727 52.6646 94.3367 54.8666 93.8134 55.2966C93.6267 55.4501 91.4802 55.5014 86.7851 55.4647L80.0256 55.4118L80.0547 54.7671C80.1163 53.4019 81.6024 51.1914 83.0576 50.3007ZM135.472 51.3326C136.251 50.5245 137.387 49.919 138.75 49.586C139.307 49.4501 140.081 49.3303 140.471 49.3201C141.433 49.2946 143.726 49.792 144.554 50.2054C145.42 50.6378 146.495 51.6401 146.886 52.3788C147.338 53.2348 147.804 54.9099 147.68 55.2312C147.59 55.4645 146.385 55.512 140.579 55.512H133.586L133.586 55.0608C133.587 54.3764 134.744 52.0883 135.472 51.3326ZM166.182 57.6329C166.638 54.7727 168.225 52.5761 170.744 51.3202C171.893 50.7475 172.093 50.7142 174.389 50.7108C177.058 50.7068 177.719 50.8916 179.451 52.1234C180.359 52.7695 181.72 54.5279 182.151 55.6123C182.561 56.6438 182.766 59.0324 182.575 60.5441C182.325 62.5145 181.554 64.112 180.272 65.3122C176.94 68.4337 172.193 68.5331 168.78 65.5529C166.716 63.7504 165.701 60.6556 166.182 57.6329ZM225.317 61.9451C225.819 61.8376 226.593 61.6649 227.039 61.5616C227.484 61.4581 229.033 61.3861 230.481 61.4011L233.114 61.4288L233.177 62.4284C233.32 64.6696 232.156 67.0299 230.481 67.8961C228.805 68.7632 225.588 69.0213 223.834 68.4296C222.698 68.0464 221.572 66.8432 221.375 65.8028C221.154 64.6401 221.916 63.4118 223.293 62.7088C223.905 62.3963 224.816 62.0528 225.317 61.9451Z" fill="white" fill-opacity="0.988"/>
</svg>
