<svg width="106" height="20" viewBox="0 0 106 20" fill="none" xmlns="http://www.w3.org/2000/svg">
<path fill-rule="evenodd" clip-rule="evenodd" d="M74.3 4.1C72.7 4.1 71.5 4.7 70.9 5.7L70.6 6.3V4.4H68V16H70.8V9.1C70.8 7.5 71.7 6.5 73.3 6.5C74.8 6.5 75.6 7.4 75.6 9V16H78.4V8.5C78.3 5.8 76.8 4.1 74.3 4.1ZM60.8 4.1C57.5 4.1 55.5 6.2 55.5 9.5V11.1C55.5 14.3 57.6 16.2 60.9 16.2C63.1 16.2 64.7 15.4 65.6 13.7L63.9 12.7C63.2 13.7 62 14.3 60.9 14.3C59.2 14.3 58.2 13.3 58.2 11.5V11H66V9.1C65.9 6.1 63.9 4.1 60.8 4.1ZM63.4 9.3H58.2V9C58.2 7.1 59.1 6 60.8 6C62.4 6 63.4 7 63.4 8.8V9.3ZM106 2.5V0.299999H96.4V2.5H99.8V13.8H96.4V16H106V13.8H102.6V2.5H106ZM32.9 0C28.6 0 25.9 2.7 25.9 7V9.3C25.9 13.6 28.6 16.3 32.9 16.3C37.2 16.3 39.9 13.6 39.9 9.3V7C39.9 2.7 37.2 0 32.9 0ZM37 9.5C37 12.4 35.5 14 32.9 14C30.3 14 28.8 12.4 28.8 9.5V6.8C28.8 3.9 30.3 2.3 32.9 2.3C35.5 2.3 37 3.9 37 6.8V9.5ZM48.7 4.2C47.2 4.2 46 4.8 45.3 5.8L45 6.2V4.4H42.4V20H45.2V14.4L45.5 14.8C46.1 15.7 47.4 16.3 48.8 16.3C51.2 16.3 53.6 14.7 53.6 11.2V9.2C53.5 6.7 52 4.1 48.7 4.2ZM50.7 11.1C50.7 13 49.6 14.1 47.9 14.1C46.3 14.1 45.1 12.9 45.1 11.1V9.4C45.1 7.6 46.2 6.4 47.9 6.4C49.6 6.4 50.7 7.6 50.7 9.4V11.1ZM86 0.299999L80.4 16H83.2L84.3 12.6H90.8L91.9 15.9H94.7L89.1 0.200001L86 0.299999ZM85 10.4L87.5 2.5L90 10.4H85ZM18.7 8.2C19.2 6.8 19 5.3 18.3 4.1C17.2 2.2 15 1.2 12.9 1.7C11.7 0.400001 9.9 -0.200002 8.1 0.0999985C6.3 0.499998 4.9 1.8 4.3 3.5C2.9 3.8 1.7 4.7 1 5.9C-0.0999976 7.8 0.100003 10.2 1.6 11.8C1.1 13.2 1.3 14.7 2 15.9C3.1 17.8 5.3 18.8 7.4 18.3C8.4 19.4 9.7 20 11.2 20C13.4 20 15.3 18.6 16 16.5C17.4 16.2 18.6 15.3 19.3 14.1C20.4 12.2 20.2 9.8 18.7 8.2ZM11.2 18.7C10.3 18.7 9.5 18.4 8.8 17.8L8.9 17.7L12.9 15.4C13.1 15.3 13.2 15.1 13.2 14.8V9.2L14.9 10.2V14.9C14.9 17 13.3 18.7 11.2 18.7ZM3.1 15.2C2.7 14.4 2.5 13.6 2.7 12.7L2.8 12.8L6.8 15.1C7 15.2 7.2 15.2 7.5 15.1L12.4 12.3V14.2C12.4 14.2 12.4 14.2 12.4 14.3L8.4 16.6C6.5 17.6 4.2 17 3.1 15.2ZM2.1 6.6C2.5 5.8 3.2 5.3 4.1 5V9.7C4.1 9.9 4.2 10.1 4.4 10.3L9.2 13.1L7.5 14.1C7.5 14.1 7.5 14.1 7.4 14.1L3.4 11.8C1.7 10.6 1.1 8.3 2.1 6.6ZM15.9 9.8L11.1 7L12.8 6C12.8 6 12.8 6 12.9 6L16.9 8.3C18.2 9 18.9 10.4 18.8 11.9C18.7 13.3 17.7 14.6 16.4 15.1V10.4C16.3 10.1 16.1 9.9 15.9 9.8ZM17.6 7.3L17.5 7.2L13.5 4.9C13.3 4.8 13 4.8 12.8 4.9L8 7.7V5.8C8 5.8 8 5.8 8 5.7L12 3.4C13.3 2.7 14.8 2.7 16 3.6C17.2 4.4 17.8 5.8 17.6 7.3ZM7.1 10.7L5.4 9.7V5C5.4 3.5 6.2 2.2 7.6 1.6C8.9 0.999998 10.5 1.2 11.6 2.1L11.5 2.2L7.5 4.5C7.3 4.6 7.2 4.8 7.2 5.1L7.1 10.7ZM8 8.7L10.2 7.5L12.4 8.7V11.2L10.2 12.4L8 11.2V8.7Z" fill="white"/>
</svg>
