<svg width="704" height="182" viewBox="0 0 704 182" fill="none" xmlns="http://www.w3.org/2000/svg">
<circle cx="36.1159" cy="39.9483" r="8.30079" fill="white"/>
<circle cx="36.1159" cy="69.6041" r="13.2255" fill="white"/>
<circle cx="36.1159" cy="99.262" r="8.30079" fill="white"/>
<circle cx="36.1159" cy="128.918" r="13.2255" fill="white"/>
<circle cx="77.9832" cy="142.905" r="8.30079" transform="rotate(-180 77.9832 142.905)" fill="white"/>
<circle cx="77.9832" cy="113.25" r="13.2255" transform="rotate(-180 77.9832 113.25)" fill="white"/>
<circle cx="77.9832" cy="83.5908" r="8.30079" transform="rotate(-180 77.9832 83.5908)" fill="white"/>
<circle cx="78.5732" cy="57.1395" r="8.89077" transform="rotate(-180 78.5732 57.1395)" fill="white"/>
<circle cx="119.851" cy="40.4131" r="8.30079" fill="white"/>
<circle cx="119.851" cy="70.0687" r="13.2255" fill="white"/>
<circle cx="119.851" cy="99.7276" r="8.30079" fill="white"/>
<circle cx="119.261" cy="126.179" r="8.89077" fill="white"/>
<path d="M213.077 105.57L221.525 71.2655C219.819 70.9242 217.899 70.4122 215.765 69.7295L215.957 67.4895H231.957C232.683 68.8549 233.045 70.1349 233.045 71.3295C230.699 71.4575 228.651 71.5855 226.901 71.7136L215.765 112.29H209.749L198.741 74.7215L188.757 112.29H182.101L170.645 71.2655C168.939 70.9242 167.019 70.4122 164.885 69.7295L165.077 67.4895H181.717C182.443 68.8549 182.805 70.1349 182.805 71.3295C180.715 71.4575 178.795 71.5855 177.045 71.7136L185.173 105.57H185.429C186.795 99.6816 188.629 92.5775 190.933 84.2575C193.28 75.9375 194.837 70.3695 195.605 67.5535H202.517L212.821 105.57H213.077ZM252.063 108.706C253.94 108.706 256.884 107.81 260.895 106.018C261.706 107.127 262.132 108.108 262.175 108.962C259.999 110.242 257.866 111.244 255.775 111.97C253.684 112.695 252.191 113.058 251.295 113.058C246.346 113.058 242.57 111.586 239.967 108.642C237.364 105.655 236.063 101.495 236.063 96.1616C236.063 90.8282 237.322 86.6469 239.839 83.6175C242.399 80.5455 246.218 79.0095 251.295 79.0095C255.22 79.0095 258.207 80.4175 260.255 83.2335C262.346 86.0495 263.391 89.8256 263.391 94.5616C263.05 95.1589 262.772 95.5642 262.559 95.7775L241.951 95.4576C241.994 99.7669 242.74 103.052 244.191 105.314C245.684 107.575 248.308 108.706 252.063 108.706ZM257.567 91.8095C257.567 88.9935 257.055 86.8176 256.031 85.2815C255.007 83.7029 253.3 82.9135 250.911 82.9135C248.522 82.9135 246.388 83.3615 244.511 84.2575C243.231 86.8175 242.42 89.4415 242.079 92.1295C245.45 92.0869 250.612 91.9802 257.567 91.8095ZM280.077 73.6975C278.968 73.9535 277.88 74.0816 276.813 74.0816C275.789 74.0816 274.765 74.0176 273.741 73.8895C273.485 72.6949 273.357 71.5002 273.357 70.3055C273.357 69.0682 273.4 68.1509 273.485 67.5535C274.424 67.3402 275.405 67.2335 276.429 67.2335C277.496 67.2335 278.626 67.2762 279.821 67.3615C280.077 68.4709 280.205 69.5589 280.205 70.6255C280.205 71.6495 280.162 72.6735 280.077 73.6975ZM268.429 80.4175C272.056 79.7775 274.872 79.4576 276.877 79.4576C278.882 79.4576 280.162 79.5002 280.717 79.5855C280.717 80.6095 280.589 81.7402 280.333 82.9775C280.077 84.2149 279.928 84.8122 279.885 84.7696L279.309 107.938L284.685 108.45C284.685 109.644 284.322 110.924 283.597 112.29H268.877L268.685 110.05C270.648 109.367 272.568 108.855 274.445 108.514C274.189 97.8469 273.976 89.8469 273.805 84.5135C271.33 84.5135 269.453 84.2575 268.173 83.7456L268.429 80.4175ZM305.14 108.386L310.836 108.258C316.724 108.258 319.668 110.69 319.668 115.554C319.668 117.815 318.687 119.906 316.724 121.826C314.804 123.788 312.5 125.26 309.812 126.242C307.124 127.223 304.607 127.714 302.26 127.714C299.956 127.714 297.802 127.372 295.796 126.69C293.791 126.05 292.084 124.983 290.676 123.49C289.268 121.996 288.564 120.268 288.564 118.306C288.564 117.836 289.311 116.599 290.804 114.594C292.34 112.631 293.343 111.479 293.812 111.138C293.428 110.882 292.682 110.156 291.572 108.962C290.463 107.724 289.844 106.871 289.716 106.402C290.783 104.439 292.468 102.519 294.772 100.642C291.359 98.5936 289.652 95.2229 289.652 90.5296C289.652 86.7749 290.847 83.9162 293.236 81.9535C295.626 79.9909 298.612 79.0095 302.196 79.0095C305.78 79.0095 308.554 79.5855 310.516 80.7375C313.93 80.0549 317.279 79.7136 320.564 79.7136C321.375 79.7136 321.78 80.2042 321.78 81.1855C321.78 82.8922 321.46 84.0655 320.82 84.7055L313.46 83.4895C314.996 85.4522 315.764 87.7989 315.764 90.5296C315.764 94.7962 314.506 97.8682 311.988 99.7456C309.471 101.58 306.378 102.498 302.708 102.498C301.556 102.498 300.191 102.348 298.612 102.05C297.972 103.372 297.162 104.802 296.18 106.338C296.948 107.703 299.935 108.386 305.14 108.386ZM313.268 120.162C313.695 118.967 313.908 117.73 313.908 116.45C313.908 115.212 313.418 114.21 312.436 113.442C311.455 112.674 310.196 112.29 308.66 112.29C302.559 112.29 298.826 112.226 297.46 112.098C296.308 113.932 295.498 115.468 295.028 116.706C294.602 117.986 294.388 118.711 294.388 118.882C294.388 120.546 295.178 121.783 296.756 122.594C298.335 123.404 300.148 123.81 302.196 123.81C304.287 123.81 306.378 123.468 308.468 122.786C310.602 122.103 312.202 121.228 313.268 120.162ZM310.004 90.7855C310.004 85.4949 307.572 82.8496 302.708 82.8496C297.844 82.8496 295.412 85.4096 295.412 90.5296C295.412 93.1322 296.052 95.1376 297.332 96.5456C298.612 97.9536 300.468 98.6575 302.9 98.6575C307.636 98.6575 310.004 96.0335 310.004 90.7855ZM334.204 64.7375C335.527 64.7375 336.466 64.7802 337.02 64.8655C337.02 65.6335 336.892 66.6362 336.636 67.8736C336.423 69.0682 336.274 69.7722 336.188 69.9855C336.188 70.9242 336.146 72.8655 336.06 75.8095C335.975 78.7535 335.932 81.0362 335.932 82.6575C337.767 81.6762 339.58 80.8229 341.372 80.0975C343.207 79.3722 344.359 79.0095 344.828 79.0095C348.924 79.0095 351.89 80.0335 353.724 82.0815C355.559 84.0869 356.476 87.1589 356.476 91.2976C356.476 92.4922 356.306 98.0389 355.964 107.938L361.34 108.45C361.34 109.644 360.978 110.924 360.252 112.29H345.532L345.34 110.05C347.303 109.367 349.223 108.855 351.1 108.514C350.844 97.3349 350.61 91.1269 350.396 89.8895C350.226 88.6095 349.927 87.5002 349.5 86.5616C349.074 85.6229 348.434 84.9615 347.58 84.5775C346.727 84.1935 345.596 84.0015 344.188 84.0015C341.287 84.0015 338.514 84.6842 335.868 86.0495L335.484 107.938L340.86 108.45C340.86 109.644 340.498 110.924 339.772 112.29H325.052L324.86 110.05C326.823 109.367 328.743 108.855 330.62 108.514L329.852 69.7935C327.506 69.6655 325.628 69.4095 324.22 69.0255L324.476 65.6975C326.652 65.0575 329.895 64.7375 334.204 64.7375ZM369.48 108.322L368.968 84.1936H364.04L363.848 81.9535C364.275 81.6549 365.512 81.1002 367.56 80.2896L372.808 72.0975C373.662 72.1829 374.323 72.3962 374.792 72.7375L374.728 79.7775C377.928 79.7775 380.552 79.9909 382.6 80.4175C382.6 81.5695 382.238 82.8282 381.512 84.1936H374.6C374.515 89.3136 374.43 97.0789 374.344 107.49C376.734 107.618 379.123 108.044 381.512 108.77L381.448 111.01C380.851 111.394 379.315 111.842 376.84 112.354C374.408 112.866 372.403 113.122 370.824 113.122C370.611 112.78 370.334 112.055 369.992 110.946C369.651 109.794 369.48 108.919 369.48 108.322ZM392.306 108.194C393.8 108.834 395.613 109.154 397.746 109.154C399.922 109.154 401.629 108.748 402.866 107.938C404.104 107.127 404.722 106.018 404.722 104.61C404.722 103.202 404.146 102.028 402.994 101.09C401.842 100.151 400.434 99.3189 398.77 98.5935C397.106 97.8682 395.442 97.1002 393.778 96.2896C392.114 95.4789 390.706 94.4122 389.554 93.0896C388.402 91.7669 387.826 90.2309 387.826 88.4816C387.826 85.5375 388.808 83.2335 390.77 81.5695C392.733 79.8629 395.442 79.0095 398.898 79.0095C402.397 79.0095 405.682 79.7989 408.754 81.3776C408.797 81.8042 408.818 82.9562 408.818 84.8335C408.818 86.6682 408.626 88.2469 408.242 89.5695C407.218 89.9109 406.002 90.0816 404.594 90.0816L402.482 83.5535C401.544 83.0842 400.264 82.8496 398.642 82.8496C397.064 82.8496 395.805 83.2762 394.866 84.1295C393.928 84.9402 393.458 85.9855 393.458 87.2655C393.458 88.5029 394.034 89.5909 395.186 90.5296C396.381 91.4682 397.81 92.3215 399.474 93.0896C401.138 93.8149 402.802 94.6042 404.466 95.4576C406.13 96.2682 407.538 97.3562 408.69 98.7215C409.885 100.044 410.482 101.58 410.482 103.33C410.482 106.402 409.288 108.812 406.898 110.562C404.552 112.268 401.65 113.122 398.194 113.122C396.317 113.122 394.312 112.823 392.178 112.226C390.045 111.586 388.253 110.775 386.802 109.794C386.802 106.935 387.058 104.396 387.57 102.178C388.552 102.007 389.874 101.922 391.538 101.922L392.306 108.194ZM445.549 90.2736C443.586 91.1695 441.965 92.4709 440.685 94.1775C439.448 95.8415 438.829 97.5909 438.829 99.4256C438.829 101.218 439.213 102.775 439.981 104.098C440.749 105.42 441.709 106.402 442.861 107.042C445.037 108.322 447.17 108.962 449.261 108.962C453.656 108.962 457.325 107.212 460.269 103.714L445.549 90.2736ZM449.005 113.058C444.098 113.058 440.173 111.906 437.229 109.602C434.285 107.298 432.813 103.97 432.813 99.6175C432.813 96.7162 433.709 94.1776 435.501 92.0016C437.336 89.8255 439.448 88.2042 441.837 87.1376C440.258 85.3882 439.106 83.7669 438.381 82.2736C437.698 80.7802 437.357 78.9882 437.357 76.8975C437.357 73.9535 438.466 71.5215 440.685 69.6015C442.946 67.6815 446.018 66.7215 449.901 66.7215C451.992 66.7215 453.997 67.1695 455.917 68.0655C457.88 68.9615 459.416 69.9429 460.525 71.0095L459.437 77.3456C458.968 77.5162 458.37 77.6015 457.645 77.6015L456.429 77.5375L454.829 70.9455C453.592 70.6042 451.949 70.4335 449.901 70.4335C447.853 70.4335 446.317 71.0735 445.293 72.3535C444.269 73.6335 443.757 74.9135 443.757 76.1936C443.757 77.4735 444.013 78.6682 444.525 79.7775C445.08 80.8869 445.634 81.7829 446.189 82.4655C446.786 83.1055 447.789 84.1295 449.197 85.5375C450.52 86.9029 455 91.7882 462.637 100.194C464.258 97.3349 465.069 93.0255 465.069 87.2655C465.069 86.0282 465.026 85.0255 464.941 84.2575L459.565 83.7456C459.565 82.5509 459.928 81.2709 460.653 79.9055H475.373L475.565 82.1455C473.602 82.8282 471.64 83.3402 469.677 83.6815C469.634 86.1562 469.208 89.3989 468.397 93.4095C467.629 97.4202 466.584 100.45 465.261 102.498L473.517 111.586C472.834 112.823 471.981 113.442 470.957 113.442L462.637 106.274C461.058 108.066 458.904 109.644 456.173 111.01C453.485 112.375 451.096 113.058 449.005 113.058ZM521.152 88.9296C523.627 89.2282 525.803 90.3802 527.68 92.3855C529.6 94.3909 530.56 97.2069 530.56 100.834C530.56 104.418 529.131 107.234 526.272 109.282C523.456 111.287 519.318 112.29 513.856 112.29H496.32L496.128 110.05C497.92 109.324 499.755 108.812 501.632 108.514C501.376 92.0442 501.163 79.6922 500.992 71.4576C499.542 71.2015 497.664 70.6895 495.36 69.9215C495.488 68.3429 495.595 67.5322 495.68 67.4895H511.744C517.462 67.4895 521.344 67.9802 523.392 68.9615C524.374 69.4309 525.355 70.0496 526.336 70.8176C528.299 72.3535 529.28 74.8922 529.28 78.4335C529.28 80.2255 528.96 81.8469 528.32 83.2976C527.723 84.7055 526.934 85.7935 525.952 86.5616C524.16 87.9695 522.56 88.7589 521.152 88.9296ZM514.176 91.6815H507.072C506.987 95.3509 506.902 100.77 506.816 107.938H513.6C520.683 107.938 524.224 105.292 524.224 100.002C524.224 96.9296 523.392 94.7749 521.728 93.5375C520.107 92.3002 517.59 91.6815 514.176 91.6815ZM511.104 71.9695L507.264 72.0336C507.179 75.9589 507.136 81.0576 507.136 87.3295H513.408C517.163 87.3295 519.659 86.6255 520.896 85.2176C522.176 83.7669 522.816 81.4842 522.816 78.3695C522.816 74.1029 518.912 71.9695 511.104 71.9695ZM547.577 73.6975C546.468 73.9535 545.38 74.0816 544.313 74.0816C543.289 74.0816 542.265 74.0176 541.241 73.8895C540.985 72.6949 540.857 71.5002 540.857 70.3055C540.857 69.0682 540.9 68.1509 540.985 67.5535C541.924 67.3402 542.905 67.2335 543.929 67.2335C544.996 67.2335 546.126 67.2762 547.321 67.3615C547.577 68.4709 547.705 69.5589 547.705 70.6255C547.705 71.6495 547.662 72.6735 547.577 73.6975ZM535.929 80.4175C539.556 79.7775 542.372 79.4576 544.377 79.4576C546.382 79.4576 547.662 79.5002 548.217 79.5855C548.217 80.6095 548.089 81.7402 547.833 82.9775C547.577 84.2149 547.428 84.8122 547.385 84.7696L546.809 107.938L552.185 108.45C552.185 109.644 551.822 110.924 551.097 112.29H536.377L536.185 110.05C538.148 109.367 540.068 108.855 541.945 108.514C541.689 97.8469 541.476 89.8469 541.305 84.5135C538.83 84.5135 536.953 84.2575 535.673 83.7456L535.929 80.4175ZM581.472 91.3615L581.152 107.874C582.987 108.002 584.822 108.3 586.656 108.77L586.528 111.01C585.846 111.351 584.608 111.735 582.816 112.162C581.067 112.546 579.339 112.738 577.632 112.738C576.864 111.202 576.438 109.73 576.352 108.322C571.488 111.522 568.075 113.122 566.112 113.122C563.083 113.122 560.651 112.311 558.816 110.69C556.982 109.068 556.064 106.807 556.064 103.906C556.064 97.2069 560.16 93.7509 568.352 93.5375C573.131 93.4096 575.542 93.3456 575.584 93.3456L575.52 91.1695C575.435 88.2255 574.88 86.1135 573.856 84.8335C572.832 83.5109 570.998 82.8496 568.352 82.8496C567.243 82.8496 566.048 83.1056 564.768 83.6175L563.232 90.0175C563.019 90.0602 562.656 90.0816 562.144 90.0816L559.52 89.8895C558.838 88.0549 558.475 85.5162 558.432 82.2736C559.243 81.8469 561.099 81.2069 564 80.3535C566.902 79.4575 568.758 79.0095 569.568 79.0095C573.92 79.0095 576.992 79.9695 578.784 81.8895C580.576 83.8095 581.472 86.9669 581.472 91.3615ZM567.52 108.77C568.758 108.77 571.616 107.383 576.096 104.61L575.776 96.6096C572.875 96.8656 570.443 97.1002 568.48 97.3135C566.518 97.5269 564.939 98.1029 563.744 99.0415C562.55 99.9376 561.952 101.367 561.952 103.33C561.952 106.956 563.808 108.77 567.52 108.77ZM595.556 108.194C597.05 108.834 598.863 109.154 600.996 109.154C603.172 109.154 604.879 108.748 606.116 107.938C607.354 107.127 607.972 106.018 607.972 104.61C607.972 103.202 607.396 102.028 606.244 101.09C605.092 100.151 603.684 99.3189 602.02 98.5935C600.356 97.8682 598.692 97.1002 597.028 96.2896C595.364 95.4789 593.956 94.4122 592.804 93.0896C591.652 91.7669 591.076 90.2309 591.076 88.4816C591.076 85.5375 592.058 83.2335 594.02 81.5695C595.983 79.8629 598.692 79.0095 602.148 79.0095C605.647 79.0095 608.932 79.7989 612.004 81.3776C612.047 81.8042 612.068 82.9562 612.068 84.8335C612.068 86.6682 611.876 88.2469 611.492 89.5695C610.468 89.9109 609.252 90.0816 607.844 90.0816L605.732 83.5535C604.794 83.0842 603.514 82.8496 601.892 82.8496C600.314 82.8496 599.055 83.2762 598.116 84.1295C597.178 84.9402 596.708 85.9855 596.708 87.2655C596.708 88.5029 597.284 89.5909 598.436 90.5296C599.631 91.4682 601.06 92.3215 602.724 93.0896C604.388 93.8149 606.052 94.6042 607.716 95.4576C609.38 96.2682 610.788 97.3562 611.94 98.7215C613.135 100.044 613.732 101.58 613.732 103.33C613.732 106.402 612.538 108.812 610.148 110.562C607.802 112.268 604.9 113.122 601.444 113.122C599.567 113.122 597.562 112.823 595.428 112.226C593.295 111.586 591.503 110.775 590.052 109.794C590.052 106.935 590.308 104.396 590.82 102.178C591.802 102.007 593.124 101.922 594.788 101.922L595.556 108.194ZM635.438 108.706C637.315 108.706 640.259 107.81 644.27 106.018C645.081 107.127 645.507 108.108 645.55 108.962C643.374 110.242 641.241 111.244 639.15 111.97C637.059 112.695 635.566 113.058 634.67 113.058C629.721 113.058 625.945 111.586 623.342 108.642C620.739 105.655 619.438 101.495 619.438 96.1616C619.438 90.8282 620.697 86.6469 623.214 83.6175C625.774 80.5455 629.593 79.0095 634.67 79.0095C638.595 79.0095 641.582 80.4175 643.63 83.2335C645.721 86.0495 646.766 89.8256 646.766 94.5616C646.425 95.1589 646.147 95.5642 645.934 95.7775L625.326 95.4576C625.369 99.7669 626.115 103.052 627.566 105.314C629.059 107.575 631.683 108.706 635.438 108.706ZM640.942 91.8095C640.942 88.9935 640.43 86.8176 639.406 85.2815C638.382 83.7029 636.675 82.9135 634.286 82.9135C631.897 82.9135 629.763 83.3615 627.886 84.2575C626.606 86.8175 625.795 89.4415 625.454 92.1295C628.825 92.0869 633.987 91.9802 640.942 91.8095ZM657.244 108.194C658.737 108.834 660.551 109.154 662.684 109.154C664.86 109.154 666.567 108.748 667.804 107.938C669.041 107.127 669.66 106.018 669.66 104.61C669.66 103.202 669.084 102.028 667.932 101.09C666.78 100.151 665.372 99.3189 663.708 98.5935C662.044 97.8682 660.38 97.1002 658.716 96.2896C657.052 95.4789 655.644 94.4122 654.492 93.0896C653.34 91.7669 652.764 90.2309 652.764 88.4816C652.764 85.5375 653.745 83.2335 655.708 81.5695C657.671 79.8629 660.38 79.0095 663.836 79.0095C667.335 79.0095 670.62 79.7989 673.692 81.3776C673.735 81.8042 673.756 82.9562 673.756 84.8335C673.756 86.6682 673.564 88.2469 673.18 89.5695C672.156 89.9109 670.94 90.0816 669.532 90.0816L667.42 83.5535C666.481 83.0842 665.201 82.8496 663.58 82.8496C662.001 82.8496 660.743 83.2762 659.804 84.1295C658.865 84.9402 658.396 85.9855 658.396 87.2655C658.396 88.5029 658.972 89.5909 660.124 90.5296C661.319 91.4682 662.748 92.3215 664.412 93.0896C666.076 93.8149 667.74 94.6042 669.404 95.4576C671.068 96.2682 672.476 97.3562 673.628 98.7215C674.823 100.044 675.42 101.58 675.42 103.33C675.42 106.402 674.225 108.812 671.836 110.562C669.489 112.268 666.588 113.122 663.132 113.122C661.255 113.122 659.249 112.823 657.116 112.226C654.983 111.586 653.191 110.775 651.74 109.794C651.74 106.935 651.996 104.396 652.508 102.178C653.489 102.007 654.812 101.922 656.476 101.922L657.244 108.194Z" fill="white"/>
</svg>
