<?xml version="1.0" encoding="UTF-8" standalone="no"?>
<svg
   width="49.891502"
   height="12.664266"
   viewBox="0 0 49.891502 12.664266"
   fill="none"
   class="logo logo--light"
   version="1.1"
   id="svg20"
   sodipodi:docname="logo-covariant-bw.svg"
   inkscape:version="1.2 (dc2aedaf03, 2022-05-15)"
   xmlns:inkscape="http://www.inkscape.org/namespaces/inkscape"
   xmlns:sodipodi="http://sodipodi.sourceforge.net/DTD/sodipodi-0.dtd"
   xmlns="http://www.w3.org/2000/svg"
   xmlns:svg="http://www.w3.org/2000/svg">
  <defs
     id="defs24" />
  <sodipodi:namedview
     id="namedview22"
     pagecolor="#ffffff"
     bordercolor="#000000"
     borderopacity="0.25"
     inkscape:showpageshadow="2"
     inkscape:pageopacity="0.0"
     inkscape:pagecheckerboard="0"
     inkscape:deskcolor="#d1d1d1"
     showgrid="false"
     inkscape:zoom="10.937197"
     inkscape:cx="11.154595"
     inkscape:cy="-15.497572"
     inkscape:window-width="1728"
     inkscape:window-height="1058"
     inkscape:window-x="-6"
     inkscape:window-y="-6"
     inkscape:window-maximized="1"
     inkscape:current-layer="svg20" />
  <g
     id="g316"
     style="fill:#ffffff"
     transform="matrix(0.5822515,0,0,0.5822515,2.7475292,2.5474981)">
    <path
       d="M 0,8.56982 C 0,7.28094 0.59927,6.0096 1.67042,5.35638 2.12409,4.39443 3.10489,3.52282 4.70252,3.52282 c 1.81535,0 3.46757,1.16215 3.9037,3.30444 H 7.24454 C 6.77266,5.28424 5.61052,4.64857 4.19424,4.64857 3.26804,4.64857 2.39708,4.9391 1.83421,5.44738 1.61647,6.01025 1.36233,6.9904 1.36233,7.9166 c 0,2.6324 1.27069,3.9941 2.9957,3.9941 1.48908,0 2.46923,-0.8353 2.86831,-2.21513 H 8.58802 C 8.13434,11.7469 6.68167,13 4.26704,13 1.59762,13 0,11.0754 0,8.56982 Z"
       fill="#FFFFFF"
       class="logo__c"
       id="path2"
       style="fill:#ffffff" />
    <path
       d="m 9.96725,8.24354 c 0,-2.9593 1.57945,-4.72072 4.37555,-4.72072 2.7962,0 4.3756,1.76077 4.3756,4.72072 C 18.7184,11.2035 17.139,13 14.3428,13 11.5467,13 9.96725,11.2392 9.96725,8.24354 Z m 7.44405,0 c 0,-2.28789 -1.1257,-3.64957 -3.0685,-3.64957 -1.9427,0 -3.0503,1.36168 -3.0503,3.64957 0,2.28786 1.1258,3.66716 3.0503,3.66716 1.9246,0 3.0685,-1.3435 3.0685,-3.66716 z"
       fill="#FFFFFF"
       class="logo__o"
       id="path4"
       style="fill:#ffffff" />
    <path
       d="m 19.4438,3.70416 h 1.3799 l 2.9775,8.67834 h 0.0364 l 2.9593,-8.67834 h 1.3798 L 24.9269,12.818 h -2.2515 z"
       fill="#FFFFFF"
       class="logo__v"
       id="path6"
       style="fill:#ffffff" />
    <path
       d="m 30.5004,11.0936 c -1.1986,-1.0529 -1.5067,-2.12405 -1.5067,-3.34079 0,-1.94275 1.4709,-4.22999 3.9941,-4.22999 1.634,0 2.8683,0.90801 3.3226,2.70517 h 0.0364 V 3.70416 h 1.3071 V 12.8187 H 36.3468 V 10.2948 H 36.3104 C 35.8568,12.0738 34.8578,13 33.2237,13 c -1.307,0 -2.4146,-0.9262 -2.7233,-1.9064 z m 5.9004,-2.83251 c 0,-1.96096 -1.0894,-3.61317 -2.9047,-3.61317 -1.9064,0 -3.2317,1.41628 -3.2317,3.95765 0,0.9444 0.0364,1.48843 0.3816,2.39643 0.7078,0.5993 1.7068,0.8716 2.5056,0.8716 1.5794,0 3.2498,-0.8898 3.2498,-3.61316 z"
       fill="#FFFFFF"
       class="logo__a logo__a--0"
       id="path8"
       style="fill:#ffffff" />
    <path
       d="m 40.0133,3.70416 h 1.3253 v 2.88651 h 0.0364 c 0.1813,-1.88816 1.2343,-3.0685 2.9775,-3.0685 0.5265,0 1.0529,0.091 1.4163,0.27234 L 45.3515,5.0652 C 45.0064,4.84746 44.4981,4.73826 44.008,4.73826 c -1.6522,0 -2.6688,1.43448 -2.6688,3.61317 V 12.818 H 40.014 V 3.70416 Z"
       fill="#FFFFFF"
       class="logo__r"
       id="path10"
       style="fill:#ffffff" />
    <path
       d="M 47.1662,1.56187 C 47.0031,1.39873 46.9121,1.18034 46.9121,0.908005 c 0,-0.254138 0.091,-0.471877 0.2541,-0.635669 C 47.3293,0.0909955 47.5477,0 47.8201,0 c 0.2723,0 0.49,0.0909955 0.6538,0.272336 0.1632,0.163142 0.2542,0.381531 0.2542,0.635669 0,0.272335 -0.091,0.490075 -0.2542,0.653865 -0.1631,0.18134 -0.3815,0.25414 -0.6538,0.25414 -0.2724,0 -0.4901,-0.0728 -0.6539,-0.25414 z m 0,2.14229 h 1.3071 v 9.11454 h -1.3071 z"
       fill="#FFFFFF"
       class="logo__i"
       id="path12"
       style="fill:#ffffff" />
    <path
       d="m 57.6781,6.22799 h 0.0364 V 3.70416 h 1.3071 V 12.8187 H 57.7145 V 10.2948 H 57.6781 C 57.2244,12.092 55.9895,13 54.3555,13 c -2.5238,0 -3.9941,-2.2879 -3.9941,-4.22999 0,-1.21609 0.3088,-2.28788 1.5067,-3.34083 0.3087,-0.98015 1.4162,-1.90636 2.7233,-1.90636 1.634,0 2.6324,0.92621 3.0867,2.70517 z M 52.0137,5.52017 c -0.3452,0.90801 -0.3816,1.45268 -0.3816,2.39643 0,2.542 1.3253,3.9577 3.2317,3.9577 1.9063,0 2.9047,-1.6523 2.9047,-3.61321 0,-2.72337 -1.6705,-3.61317 -3.2499,-3.61317 -0.7988,0 -1.7971,0.27233 -2.5056,0.8716 z"
       fill="#FFFFFF"
       class="logo__a logo__a--1"
       id="path14"
       style="fill:#ffffff" />
    <path
       d="m 61.381,3.70416 h 1.3071 l -0.0182,2.52383 h 0.0364 c 0.2723,-1.61582 1.2707,-2.70517 3.1049,-2.70517 2.0877,0 3.3044,1.16215 3.3044,3.63137 V 12.8187 H 67.7903 V 7.18994 c 0,-1.52482 -1.0347,-2.61417 -2.5056,-2.61417 -1.634,0 -2.596,1.32528 -2.596,3.24984 V 12.8187 H 61.3816 V 3.70416 Z"
       fill="#FFFFFF"
       class="logo__n"
       id="path16"
       style="fill:#ffffff" />
    <path
       d="M 71.8201,10.2402 V 4.72136 H 70.3492 V 3.70481 h 1.5431 V 0.545323 h 1.2342 V 3.70416 h 3.1231 v 1.01655 h -3.1231 v 5.60989 c 0,1.0165 0.5993,1.543 1.6523,1.543 0.4536,0 1.0529,-0.1449 1.4163,-0.3269 v 1.0893 c -0.4719,0.2178 -1.144,0.3633 -1.779,0.3633 -1.6886,0 -2.596,-1.0165 -2.596,-2.7597 z"
       fill="#FFFFFF"
       class="logo__t"
       id="path18"
       style="fill:#ffffff" />
  </g>
</svg>
